<svg width="82" height="82" viewBox="0 0 82 82" fill="none" xmlns="http://www.w3.org/2000/svg">
<g clip-path="url(#clip0_296_1089)">
<path d="M41.2619 10.0222C41.1796 9.99266 41.0916 9.98202 41.0045 9.99111C40.9074 10.0002 40.757 10.0154 40.5938 10.0359C40.3356 10.123 40.0785 10.2138 39.8224 10.3085C39.9282 10.3303 40.0366 10.3369 40.1443 10.3282C40.4829 10.2811 40.9795 10.2151 41.0083 10.1004C40.9296 10.112 40.8502 10.1193 40.7707 10.1225C40.938 10.1096 41.103 10.0759 41.2619 10.0222ZM41.3181 9.79978C41.1217 9.86153 40.9256 9.9248 40.7297 9.98959C40.836 9.98124 40.943 9.97365 41.0562 9.9615C41.2346 9.93189 41.3546 9.90152 41.4867 9.87874C41.4658 9.85453 41.4399 9.83513 41.4108 9.82189C41.3817 9.80865 41.3501 9.80188 41.3181 9.80206V9.79978ZM42.5861 10.4527C42.3864 10.4565 42.2885 10.5446 42.1389 10.5401C41.8291 10.5757 41.5793 10.4884 41.6028 10.3707C41.5983 10.354 41.5952 10.3586 41.6249 10.2994C41.5301 10.3017 41.4353 10.2956 41.3417 10.2811C41.1549 10.3358 40.7722 10.4057 40.7274 10.4953C40.7198 10.5659 40.978 10.537 41.0888 10.5476C41.0554 10.5598 41.0805 10.5871 41.0653 10.6236C41.0243 10.6372 40.9248 10.6509 40.9036 10.6562C40.9605 10.6775 41.0342 10.6562 41.2073 10.6524C41.0944 10.7124 40.9691 10.7452 40.8413 10.7481C40.1382 10.7838 39.9256 10.6365 39.4557 10.6623C39.3448 10.6805 39.215 10.6744 39.1094 10.6987C39.1056 10.6395 39.0457 10.6304 38.9857 10.6342C38.5195 10.822 38.0574 11.0207 37.5993 11.2302C37.6276 11.2295 37.6557 11.2249 37.6828 11.2166C37.786 11.2166 37.9926 11.2105 38.1854 11.193C38.3783 11.1756 38.5605 11.1277 38.827 11.0852C38.8445 11.0396 38.9325 11.0154 39.0191 10.9964C39.0138 11.0822 39.1284 11.0594 39.2309 11.0989C39.0259 11.1065 38.8407 11.0989 38.783 11.209C38.7678 11.2538 38.9933 11.275 39.1785 11.2515C39.5246 11.2174 39.868 11.1603 40.2066 11.0806C40.2506 11.0806 41.2695 10.9083 41.284 10.9121C41.2984 10.9159 42.211 10.8946 42.3135 10.8703C42.4654 10.8514 42.8822 10.6904 42.9148 10.5826C42.9422 10.4877 42.7858 10.452 42.5861 10.455V10.4527ZM39.4435 10.4839L39.3228 10.4968L39.095 10.5871C39.2036 10.5811 39.3114 10.5697 39.4192 10.553C39.4526 10.5537 39.4405 10.5218 39.4435 10.4861V10.4839ZM55.719 11.9591C55.3576 11.8969 55.2558 11.8407 54.8762 11.7944C54.7593 11.7944 54.5854 11.7716 54.5854 11.8513C54.571 11.9394 54.7608 11.9652 54.9218 12.0274C54.7972 12.095 55.0903 12.1899 55.4274 12.234H55.4214C55.7251 12.2803 55.864 12.2446 56.0478 12.2583C56.2136 12.31 56.3828 12.3501 56.5542 12.3782C56.6848 12.3926 56.7926 12.3782 56.8579 12.322C56.5489 12.2142 56.1745 12.0259 55.719 11.9614V11.9591ZM55.0463 11.2841C55.0911 11.2925 55.1368 11.2948 55.1822 11.291C54.9339 11.108 54.5232 11.0343 53.8497 10.9584C52.9583 10.8438 52.685 10.963 51.7374 10.8901C51.313 10.8574 50.9911 10.7868 50.5818 10.7268C50.5188 10.7268 50.2948 10.7891 50.3153 10.6782C50.3153 10.6547 50.4027 10.6555 50.4353 10.657C50.1961 10.5644 49.7869 10.6221 49.6965 10.4748C49.9243 10.4991 50.1422 10.5112 50.367 10.518C50.2212 10.43 49.4612 10.4368 49.6009 10.2963C49.4994 10.298 49.3979 10.2924 49.2972 10.2796C49.1867 10.3112 49.0712 10.321 48.957 10.3085C48.3883 10.2751 48.295 10.067 47.5448 10.0572C47.3542 10.0488 47.0558 10.0374 47.0346 10.1278C47.0475 10.1991 48.0133 10.3556 48.194 10.3601C48.3098 10.3699 48.4265 10.3554 48.5364 10.3176C48.8044 10.4414 48.8606 10.5135 49.1628 10.6433C49.1028 10.6433 48.9487 10.6706 48.9487 10.7268C48.9342 10.887 49.7436 11.0305 50.1308 11.0685C50.2948 11.0618 50.4577 11.0381 50.6168 10.9979C50.6722 11.0176 50.7625 10.9979 50.8203 11.0146C50.7633 11.1421 51.291 11.1877 51.66 11.1733H51.6638C52.1193 11.2302 52.5665 11.2621 53.0198 11.3031C53.1869 11.3031 53.2081 11.2674 53.4465 11.2705C53.4898 11.3175 53.5581 11.3798 53.7798 11.3995C54.3804 11.4755 55.1192 11.5757 55.1814 11.3623C55.1073 11.3633 55.0336 11.3515 54.9635 11.3274C54.9909 11.3054 55.0205 11.3054 55.0463 11.2841ZM46.5919 11.5575C46.6056 11.4815 46.642 11.5575 46.6588 11.4656C46.6755 11.3737 46.169 11.4565 46.0354 11.4459C46.1554 11.4102 46.5752 11.3509 46.6162 11.2279C46.6109 11.1892 46.5031 11.1589 46.4583 11.1642C46.2191 11.1702 46.0248 11.1505 45.7879 11.1528C45.4166 11.1611 45.0613 11.1292 44.7735 11.2219C44.7284 11.229 44.6853 11.2453 44.6467 11.2697C44.6247 11.373 44.939 11.3456 45.163 11.3509C45.16 11.4075 45.1485 11.4633 45.1288 11.5165C45.0455 11.5233 44.9617 11.5233 44.8783 11.5165C44.6004 11.5165 44.3597 11.4489 44.1456 11.4459C44.1281 11.4776 44.1199 11.5137 44.1221 11.5499C44.5693 11.7275 45.0711 11.6934 45.529 11.8893C45.6178 11.9356 45.6368 11.9918 45.8828 12.0047C46.0141 12.0047 46.084 11.9348 46.2396 11.9143C46.8167 11.8657 46.8357 11.9599 46.9769 11.6015C46.8888 11.5878 46.6519 11.5643 46.5927 11.5575H46.5919ZM63.1385 10.9668C62.5953 10.7314 62.0449 10.5104 61.4871 10.3039C61.169 10.2439 60.8493 10.187 60.5236 10.1376C60.6435 10.1376 60.6838 10.1642 60.7886 10.1589C60.4606 10.0071 59.1698 9.72841 58.7932 9.65172C58.65 9.61629 58.505 9.58744 58.3582 9.56517C58.2268 9.54543 58.1304 9.48924 57.8882 9.449C57.668 9.40952 57.6179 9.46874 57.3916 9.42395C57.1472 9.40269 57.0879 9.31993 56.7888 9.27209C56.7263 9.27728 56.6635 9.27601 56.6012 9.2683C55.9825 9.18554 55.3864 9.09367 54.7661 8.99724C54.6052 8.99117 54.4875 8.96156 54.3964 8.99724C54.1686 9.00559 54.3584 8.99724 54.0737 8.96611C53.5961 8.91524 53.4002 8.98206 53.2575 9.05191C53.1056 9.03293 52.4868 8.88715 52.1725 8.85678C51.8323 8.82945 52.051 8.93802 51.5135 8.88943C51.5135 8.916 51.4375 8.91448 51.3806 8.91069C51.2712 8.90537 51.1528 8.8917 51.0207 8.88487C50.553 8.84007 49.5022 8.85602 49.367 8.93726C49.4861 8.95535 49.6065 8.96398 49.7269 8.96307C49.8028 8.96307 49.9 8.94637 49.976 8.94789C50.1401 8.94806 50.3041 8.9577 50.4672 8.97674C50.31 8.97415 50.1529 8.9884 49.9987 9.01926C50.0952 9.04111 50.1928 9.05784 50.291 9.06937C50.6069 9.07696 50.6228 9.00939 50.9554 9.039C51.065 9.04281 51.1743 9.05347 51.2826 9.07089C50.8499 9.07089 50.4475 9.03369 50.2493 9.13011C50.3685 9.13011 50.6965 9.16504 51.023 9.18174C50.873 9.1744 50.7227 9.17922 50.5735 9.19617C50.6843 9.24172 51.1346 9.31461 51.4709 9.34802C51.593 9.35918 51.7159 9.35509 51.8369 9.33587L52.0518 9.35485C51.9447 9.41711 52.3699 9.46495 52.7055 9.50139C52.8239 9.51506 52.8945 9.47709 53.0373 9.49304C53.18 9.50898 53.3008 9.54467 53.6128 9.58946C54.1602 9.62211 54.5065 9.66539 54.8443 9.64185C54.9203 9.654 55.0152 9.66083 55.0888 9.67374C54.8278 9.70106 54.565 9.70716 54.303 9.69196C54.0114 9.66691 53.7669 9.62135 53.4792 9.59554C53.4465 9.6092 53.3676 9.60085 53.363 9.62667C53.363 9.66691 53.8892 9.80661 53.9704 9.83167C53.5058 9.7808 53.379 9.65172 52.953 9.56972C52.628 9.5105 52.2697 9.4938 52.0776 9.47709C51.9956 9.46279 51.9125 9.45568 51.8293 9.45583C51.8808 9.49826 51.9448 9.52254 52.0115 9.52493C51.849 9.50594 51.6638 9.47102 51.657 9.53176C51.657 9.65248 52.751 9.72006 52.77 9.8552C52.745 10.0427 52.2682 9.8962 51.8437 9.89089C51.6654 9.88479 51.4882 9.92205 51.3274 9.99946C51.3274 10.026 51.3274 10.0268 51.3221 10.0541C51.4066 10.0548 51.4908 10.0619 51.5742 10.0754C51.6243 10.0602 51.6942 10.067 51.745 10.0572C51.821 10.0625 51.9219 10.0724 51.9971 10.0792C51.9865 10.2401 52.5058 10.2994 52.7366 10.3829C52.6485 10.3723 52.5225 10.3624 52.4329 10.3525C52.1171 10.2766 51.9379 10.1657 51.3996 10.1293C51.2113 10.1179 50.9972 10.0534 50.9736 10.143C50.9736 10.2652 51.3198 10.2713 51.5173 10.3282C51.1566 10.3867 50.3024 10.2333 50.263 10.4262C50.263 10.4467 50.3138 10.4725 50.4277 10.477C50.499 10.4817 50.5704 10.4701 50.6365 10.4429C51.234 10.5545 51.6653 10.6152 52.2401 10.6706C52.5012 10.6949 52.6015 10.6547 52.751 10.6706C53.1793 10.7192 53.5969 10.7549 54.0213 10.8081C54.3607 10.8422 54.1815 10.906 54.5748 10.9493C54.9544 11.0176 55.8997 11.0731 55.9187 10.9599C55.9301 10.9007 55.7122 10.8969 55.6689 10.884C55.5303 10.8575 55.3904 10.8383 55.2498 10.8263C55.2657 10.6744 55.9331 10.8665 55.9498 10.7018C55.9574 10.6615 55.8602 10.6638 55.8336 10.6145C56.113 10.6775 56.3788 10.6965 56.6597 10.7382C56.9361 10.7382 57.0545 10.6319 57.3871 10.6471C57.2401 10.5578 57.0788 10.4943 56.9103 10.4596C57.2352 10.5218 57.4129 10.5765 57.3787 10.4596C57.2269 10.4383 57.075 10.4087 56.9232 10.3836C57.1639 10.3799 57.5784 10.4277 57.9375 10.4596C58.1919 10.4907 58.545 10.6023 58.7674 10.6008C59.2435 10.5955 59.5586 10.5142 60.1918 10.5795C60.7316 10.6706 61.5805 10.8073 61.907 10.7944C61.5273 10.698 60.9412 10.5818 60.7741 10.5029C61.5911 10.5788 62.2927 10.8445 62.8598 10.8961C62.9544 10.9133 63.0478 10.9369 63.1392 10.9668H63.1385ZM46.188 12.5278C45.8463 12.5065 45.8843 12.6956 45.6702 12.7313C45.611 12.7404 45.3027 12.6956 45.2853 12.7594C45.308 12.7692 46.5228 12.9963 46.7544 13.0031C46.9457 13.0031 47.0217 12.9408 47.2047 12.9082C47.1105 12.8102 46.456 12.5399 46.188 12.5278ZM74.2616 19.1053C71.3753 15.8027 67.8301 13.1404 63.8537 11.2894C63.6958 11.2538 63.5234 11.2135 63.2812 11.1543C62.8059 11.0412 63.2713 11.3396 62.7391 11.2021L62.7512 11.1961C62.6142 11.17 62.4816 11.124 62.358 11.0594C62.0687 11.067 61.4165 10.9835 60.8949 10.9303C60.825 10.903 60.5912 10.8658 60.5912 10.9303C60.6041 11.0594 61.4818 11.2097 61.7604 11.2872C61.79 11.455 61.6351 11.439 61.3808 11.4276C61.0498 11.3995 60.4963 11.215 60.0528 11.168C59.7545 11.1239 59.5889 11.1611 59.2981 11.1201C58.942 11.0829 58.381 10.9303 58.387 11.0753C58.422 11.1786 59.9625 11.5916 60.021 11.6068C60.2161 11.6364 60.3831 11.6888 60.5798 11.7222C60.604 11.7355 60.6317 11.7406 60.6591 11.7369C60.6864 11.7333 60.7118 11.7209 60.7316 11.7017C60.945 11.7442 61.1355 11.805 61.361 11.8414C61.2995 11.9174 61.3276 11.9174 61.172 11.9174C60.863 11.8528 60.5767 11.7837 60.267 11.723C60.1719 11.7409 60.0739 11.7354 59.9815 11.707C59.86 11.682 59.7051 11.66 59.5791 11.6311C59.453 11.6023 59.141 11.5438 59.1007 11.6493C59.409 11.7594 59.308 11.6858 59.6687 11.7579C59.863 11.786 60.0612 11.9098 60.3231 11.9857C60.2472 12.0404 60.1607 12.0069 60.008 12.0092C60.3481 12.1626 60.7027 12.2817 61.0665 12.3646C61.1857 12.3699 61.1705 12.401 61.2715 12.3911C61.2229 12.3684 61.1576 12.3334 61.1075 12.3152C61.1834 12.3258 61.2396 12.3281 61.4233 12.3615C61.607 12.3949 61.7604 12.4792 61.9009 12.5134C62.1211 12.5437 62.197 12.5134 62.3921 12.5582C62.5683 12.5969 62.6958 12.6386 62.8575 12.6713C64.6038 13.1109 65.6311 13.7661 66.1588 14.4244C66.1581 14.4562 66.1641 14.4877 66.1763 14.5171C66.3008 14.5763 66.5278 14.615 66.5559 14.7312C66.5718 14.883 66.2522 14.7699 66.2864 14.905C66.2864 15.0265 66.4276 15.0569 66.6994 15.1328C66.9082 15.1769 66.8991 15.1062 67.0403 15.1328C67.5088 15.2961 67.7016 15.6142 68.1427 15.8275C68.1465 15.8792 68.1541 15.927 68.0235 15.8792C67.6834 15.7698 67.4587 15.5998 67.1504 15.5094C67.0662 15.4765 66.9793 15.4511 66.8907 15.4335C66.9879 15.6354 68.019 16.0044 68.4776 16.2026C68.3812 16.3499 68.2035 16.3355 68.1412 16.5139C67.9347 16.397 67.9377 16.4091 67.7426 16.4015C67.7479 16.4015 67.7426 16.4099 67.7426 16.4152C67.4564 16.4357 67.4078 16.5397 67.2203 16.6156C67.2223 16.6695 67.2305 16.723 67.2445 16.7751C67.3475 16.7824 67.4477 16.8116 67.5384 16.8609C67.5027 16.9459 67.4085 16.9118 67.4177 16.9922C67.4404 17.179 67.855 17.3719 67.962 17.5381C68.016 17.6141 68.0835 17.7826 68.142 17.8191C68.4108 17.9709 68.4343 17.7963 68.6811 18.0021C68.5641 18.015 68.4692 17.9755 68.4844 18.0719C68.511 18.2997 69.0637 18.9071 69.3826 19.1144C69.4153 19.1493 69.4236 19.2321 69.5033 19.2958C69.7607 19.4348 69.8647 19.4424 69.9999 19.6496C70.1639 19.6982 70.3742 19.677 70.5678 19.7385C70.9133 19.8638 70.9368 20.1659 71.2694 20.2905C71.3567 20.289 71.4436 20.3018 71.5268 20.3284C71.5457 20.3831 71.6027 20.4173 71.6976 20.459C72.0476 20.5691 71.8252 20.1553 72.1091 20.1705C72.0674 20.0855 72.0598 19.8919 72.0332 19.7734C71.993 19.5456 72.5814 19.737 72.5563 19.5122C72.5191 19.4363 72.3984 19.3513 72.3771 19.3004C72.3817 19.2617 72.3931 19.2708 72.4455 19.2556C72.4455 19.2275 72.4128 19.207 72.4068 19.1797C72.346 18.964 73.0142 19.2829 73.2199 19.2693C73.3718 19.2571 73.2472 19.185 73.4059 19.2138C73.4158 19.2655 73.4287 19.2898 73.4386 19.3406C73.5024 19.3794 73.5464 19.3756 73.6056 19.4166C73.8129 19.434 74.188 19.6398 74.3649 19.6284C74.6124 19.6079 74.1227 19.1113 74.2616 19.106V19.1053ZM68.8109 49.9783C68.7395 49.9783 68.5641 50.1757 68.5695 49.9411C68.4548 49.9411 68.3417 49.8393 68.2658 49.7748C68.2566 49.7915 68.2225 49.7748 68.2035 49.7748C67.9924 49.7581 67.874 49.9616 67.8239 50.2303C67.8064 50.3974 68.1488 50.7132 68.3918 50.7254C68.5915 50.7254 68.8587 50.3009 68.8967 50.1438C68.8937 50.1111 68.8686 49.9805 68.8109 49.9783ZM66.994 15.5701C66.8482 15.5413 66.6903 15.5056 66.6903 15.6058C66.7671 15.7429 66.8828 15.8542 67.0228 15.9255C67.1322 15.9308 67.2256 15.9847 67.3433 16.0211C67.5908 16.0781 67.8747 16.1684 67.893 16.0675C67.5118 15.8928 67.3736 15.6947 66.994 15.5701ZM68.2923 24.5514C68.1974 24.5833 68.249 24.622 68.0896 24.5848C68.0896 24.5036 67.9803 24.4117 67.9696 24.3571C67.9742 24.3092 68.1093 24.3032 68.1215 24.1976C68.0652 24.1779 68.0039 24.1779 67.9476 24.1976C67.9339 24.004 67.9476 23.9015 67.9476 23.7793C67.8717 23.799 67.6667 23.7595 67.4852 23.6806C67.422 23.6932 67.3573 23.6968 67.2931 23.6912C67.2848 23.6707 67.2848 23.6478 67.2931 23.6274C67.2058 23.6137 67.0889 23.5879 67.0023 23.5674C66.9985 23.5325 66.9978 23.4869 66.9978 23.452C67.0274 23.4399 67.0479 23.4171 67.0737 23.4049C66.9956 23.3472 66.906 23.3071 66.811 23.2873C66.7108 23.2652 66.7085 23.3381 66.5696 23.3396V23.225C66.65 23.02 66.9902 22.9433 66.9826 22.6723C66.9745 22.64 66.9596 22.6098 66.9391 22.5837C66.9186 22.5575 66.8928 22.536 66.8634 22.5204C66.6007 22.4657 66.5187 22.654 66.3911 22.7937C66.1558 23.0504 65.9834 23.5781 65.5248 23.6722C65.5569 23.7181 65.6052 23.7501 65.66 23.7618C65.6752 23.7785 65.666 23.8172 65.66 23.8377C65.66 23.843 65.3669 23.9896 65.3608 24.0306C65.3944 24.1052 65.456 24.1636 65.5324 24.1931C65.7215 24.2363 65.7936 24.165 66.0525 24.2128C66.2469 24.2356 66.3372 24.3479 66.5529 24.4003C66.6617 24.4148 66.772 24.4148 66.8809 24.4003C66.9796 24.5522 67.1785 24.5066 67.3364 24.5446C67.2939 24.6144 67.1679 24.5788 67.1625 24.7169C67.1572 24.7397 67.2309 24.7329 67.2605 24.7367C67.4571 24.7709 67.5855 24.6175 67.716 24.4801C67.8466 24.616 67.7616 24.8399 67.8884 24.8642C67.9321 24.8793 67.9749 24.8968 68.0167 24.9166C68.0181 24.9601 68.0338 25.0019 68.0612 25.0356C68.0886 25.0693 68.1263 25.0931 68.1686 25.1034C68.3295 25.1361 68.4168 25.0001 68.4115 24.8437C68.4229 24.7306 68.3022 24.7078 68.2923 24.5514ZM46.1979 10.1954C46.0825 10.209 45.9883 10.2212 45.8615 10.2386C45.551 10.2121 45.3991 10.187 45.138 10.1832C45.0401 10.1748 44.9415 10.1771 44.8441 10.19C44.9254 10.2895 45.1114 10.266 45.3961 10.266C45.3809 10.3229 45.3847 10.3328 45.3695 10.3897C44.9481 10.4072 44.8654 10.2561 44.5009 10.2743C44.5062 10.3054 44.4789 10.3092 44.485 10.3404C44.5404 10.3859 44.6687 10.4087 44.7887 10.4322C44.2732 10.4725 44.1054 10.2045 43.6339 10.2219C43.571 10.2124 43.507 10.2142 43.4448 10.2272C43.4813 10.2272 43.4615 10.2599 43.4812 10.2887C43.4743 10.2869 43.4677 10.2841 43.4615 10.2804C43.4516 10.3282 43.4448 10.3335 43.4349 10.3799C43.5602 10.4195 43.6918 10.4352 43.8229 10.4262C43.8571 10.4262 43.8396 10.455 43.8571 10.4808C43.9378 10.472 44.019 10.4699 44.1 10.4748C44.0758 10.5173 44.1631 10.5461 44.2792 10.5401C44.6065 10.5439 45.1812 10.474 45.4849 10.474C45.5493 10.484 45.6142 10.4898 45.6793 10.4915C45.5852 10.5234 45.2784 10.5104 45.2496 10.578C45.2367 10.6 45.2496 10.6129 45.2367 10.6357C45.1883 10.6378 45.1426 10.6585 45.1091 10.6934C45.0992 10.7656 45.5328 10.723 45.6307 10.723C45.674 10.717 46.0392 10.7154 46.3004 10.7003C46.2655 10.5484 46.4697 10.455 46.5031 10.3396C46.5365 10.2242 46.5008 10.2045 46.1971 10.1954H46.1979ZM52.4603 9.75726C52.2325 9.73372 51.8156 9.63957 51.6509 9.62743C51.6213 9.62743 51.3669 9.66463 51.3669 9.60313C51.3669 9.56289 51.4892 9.59478 51.4907 9.5477C51.4922 9.50063 51.2971 9.51354 51.2971 9.46646C51.3024 9.38598 51.3274 9.39054 51.0898 9.37687C51.0404 9.37687 50.9744 9.36472 50.9243 9.36472C50.946 9.38303 50.9722 9.39533 51.0002 9.40041C51.0002 9.42926 50.9949 9.42698 50.9949 9.45735C50.9349 9.45735 50.8552 9.44217 50.7952 9.44217C50.6433 9.39054 50.7641 9.33132 50.5112 9.30246C50.2584 9.27361 50.102 9.30246 49.853 9.25311C49.5978 9.2273 49.6715 9.10582 49.3518 9.04583C49.058 9.00483 48.7444 8.98737 48.3291 8.9608C48.3337 9.05267 48.585 9.02837 48.7801 9.06026C48.7004 9.05115 48.6017 9.06026 48.5265 9.05419C48.3172 9.02931 48.1053 9.03571 47.8979 9.07317C47.9607 9.10783 48.0282 9.13339 48.0983 9.14909C48.1826 9.162 48.3823 9.14074 48.5539 9.162C48.4945 9.18684 48.4307 9.19949 48.3663 9.1992C48.2217 9.17313 48.0752 9.15916 47.9282 9.15745C47.7961 9.16428 47.5623 9.11493 47.5486 9.19085C47.5562 9.26678 48.0323 9.26678 48.2524 9.30246C48.2044 9.32265 48.1527 9.33248 48.1006 9.33132C47.9487 9.31765 47.6913 9.28576 47.6154 9.27665C47.5342 9.26451 47.4518 9.26298 47.3702 9.27209C47.4203 9.46419 47.7172 9.42926 48.2813 9.43306C48.1588 9.46295 48.033 9.47699 47.907 9.47482C47.907 9.51506 47.913 9.51354 48.0307 9.52113C48.1499 9.51582 48.2152 9.50519 48.3845 9.49835C48.4263 9.54163 48.4377 9.56896 48.607 9.56289C48.8021 9.57807 48.85 9.53935 49.1112 9.54998C49.3376 9.55935 49.5633 9.58242 49.7869 9.61907C49.5591 9.61907 48.541 9.54315 48.5091 9.64944C48.5159 9.74967 48.9494 9.78156 49.2425 9.79294C49.1702 9.81341 49.095 9.82112 49.02 9.81572C49.0709 9.89848 49.3997 9.91519 49.6783 9.93189C49.9266 9.95391 50.0891 9.97213 50.0929 9.84989C50.2867 9.90958 50.4858 9.95051 50.6874 9.97213C50.6874 9.94252 50.6935 9.941 50.6935 9.91291C50.7853 9.91291 50.9083 9.93417 50.9972 9.93417C50.9379 9.89696 50.8787 9.87646 50.7906 9.82711C50.8666 9.80813 50.9212 9.79674 50.9972 9.77396C51.0366 9.84989 51.0351 9.87191 51.2553 9.88482C51.4831 9.9205 51.7055 9.78156 52.0533 9.80889C52.1717 9.8218 52.3722 9.84913 52.439 9.8218C52.4853 9.8013 52.4549 9.80357 52.4595 9.75726H52.4603ZM45.9936 9.08152C45.9769 9.17719 46.1622 9.14757 46.2579 9.17946C46.3484 9.17339 46.4392 9.17339 46.5297 9.17946C46.541 9.14754 46.5487 9.11442 46.5525 9.08076C46.4492 9.09215 46.2047 9.07013 45.9929 9.08152H45.9936ZM47.9366 9.73144C47.954 9.56289 47.374 9.73145 47.3869 9.59402C47.1948 9.60845 46.8918 9.55757 46.8334 9.50519C46.6595 9.52265 46.4538 9.50063 46.4431 9.58111C46.3976 9.73296 46.7529 9.7193 46.9389 9.78839C46.8941 9.79294 46.7787 9.80206 46.765 9.84078C46.7499 9.93493 47.311 9.88633 47.913 9.86583C47.8682 9.77776 47.9222 9.78611 47.9358 9.73144H47.9366ZM45.5935 9.73144C45.6427 9.71987 45.6901 9.70201 45.7347 9.6783C45.6512 9.66691 45.507 9.56137 45.2792 9.56137C45.1911 9.5553 45.1167 9.60617 45.0286 9.60617C44.851 9.61148 44.9049 9.50215 44.5799 9.49683C44.4716 9.51957 44.3621 9.5363 44.2519 9.54694C44.0697 9.531 44.0059 9.48089 43.6771 9.47102C43.479 9.49076 43.3643 9.51809 43.1631 9.53328C43.1426 9.62743 43.1889 9.59706 43.4061 9.59706C43.3651 9.60769 43.3241 9.64413 43.2823 9.65248C43.4061 9.67982 43.4843 9.64261 43.8335 9.63198C43.7963 9.64033 43.7796 9.68209 43.8168 9.69272C43.605 9.73676 43.4896 9.72385 43.3241 9.77472C43.4532 9.8142 43.5124 9.79978 43.7402 9.79978C43.9748 9.77548 44.1699 9.75422 44.2595 9.80585C44.5533 9.79674 44.715 9.81345 45.0089 9.81345C45.3885 9.8218 45.3126 9.93417 45.7059 9.94328C45.822 9.92809 45.9898 9.9577 46.0096 9.87343C46.0293 9.78915 45.7142 9.7732 45.5928 9.7322L45.5935 9.73144ZM42.7888 9.87874C42.7584 9.97896 43.0978 10.0754 43.28 10.0678C43.3833 10.0678 43.4904 10.0458 43.5207 9.99187C43.192 9.95239 43.1935 9.86128 42.788 9.8795L42.7888 9.87874ZM43.5086 10.5849C43.2565 10.5955 43.1009 10.6608 43.0166 10.7526C43.1335 10.7526 43.1806 10.7526 43.3377 10.7526C43.4251 10.7526 43.5777 10.7663 43.5989 10.6714C43.6096 10.6137 43.5367 10.6296 43.5055 10.5856L43.5086 10.5849ZM44.6376 9.88178C44.5807 9.88178 44.182 9.98656 44.4736 9.96606C44.7295 9.96606 44.9011 9.96606 44.999 9.9205C44.8799 9.89566 44.7585 9.88294 44.6368 9.88254L44.6376 9.88178ZM47.8007 10.5446C47.421 10.5044 47.4552 10.6608 47.2768 10.6623C47.2472 10.6623 47.0786 10.6722 47.0437 10.7451C47.0437 10.7451 47.9935 10.9189 48.1067 10.9417C48.3489 10.9501 48.4506 10.8658 48.4726 10.7656C48.4886 10.6615 48.0998 10.5439 47.7999 10.5454L47.8007 10.5446ZM48.6435 9.96985C48.572 9.97366 48.5003 9.97061 48.4293 9.96074C48.1074 9.95315 47.5319 9.95239 47.3451 9.99263C47.3451 9.99263 48.3018 10.0784 48.3762 10.0868C48.5075 10.0997 48.6321 10.0822 48.6321 10.042C48.6541 10.0222 48.6435 10.0093 48.6427 9.97061L48.6435 9.96985ZM37.1969 11.4884C37.1117 11.4976 37.0276 11.5147 36.9455 11.5392C36.163 11.9204 35.3964 12.3344 34.6458 12.7814C34.6721 12.789 34.6997 12.7913 34.727 12.7882C34.8371 12.748 35.8522 12.4739 35.897 12.4268C35.9661 12.2955 36.6745 11.9591 37.1559 11.8429C37.3039 11.7981 38.0837 11.6759 38.1429 11.6076C38.1687 11.4732 37.5074 11.4421 37.1961 11.4876L37.1969 11.4884ZM62.8241 22.607C63.0284 22.774 63.5378 23.1179 63.8241 23.1681C63.9372 23.1992 64.0162 23.1863 64.0655 23.1316C63.692 22.9038 63.3716 22.6259 62.8241 22.607ZM63.8993 24.4292C63.7178 24.4011 63.5523 24.3738 63.3678 24.3426C63.1962 24.2667 63.0641 24.2249 62.9798 24.064C62.9606 24.0695 62.9434 24.0803 62.93 24.095C62.9166 24.1098 62.9076 24.1279 62.9039 24.1475C62.9289 24.2234 63.5606 24.597 63.6813 24.6236C63.7094 24.6152 63.8886 24.5788 63.8917 24.5112C63.8757 24.4937 63.8917 24.4527 63.8917 24.4292H63.8993ZM59.5821 38.6463C59.5991 38.6655 59.6171 38.6837 59.636 38.701C59.3202 38.4967 59.2268 38.1824 58.6004 38.1201C58.3802 38.1027 58.2693 38.1665 58.0157 38.1437C57.8836 38.1331 57.7523 37.988 57.5602 37.9721C57.5255 37.9775 57.4924 37.9909 57.4637 38.0111C57.435 38.0314 57.4114 38.0581 57.3947 38.089C57.378 38.171 57.5465 38.3115 57.6323 38.3168C57.6195 38.388 57.6222 38.4611 57.6401 38.5312C57.658 38.6013 57.6909 38.6667 57.7363 38.723C57.4843 38.8126 57.3157 38.7078 56.8586 38.6691C56.8435 38.6812 56.7827 38.7374 56.7546 38.7336V38.7382C56.763 38.8225 56.8495 39.0252 56.9657 39.0594C56.9711 39.0078 56.9818 38.9569 56.9976 38.9075C57.0659 38.9569 57.0849 38.9227 57.2314 38.928C57.4471 38.9546 57.9216 38.9364 58.1008 39.0586C58.16 39.1186 58.1236 39.3038 58.3134 39.3221C58.5313 39.3342 58.5336 39.0108 58.7834 39.0229C58.8593 39.0282 58.8805 39.1269 58.9694 39.1322C59.0704 39.1444 59.1842 39.0776 59.3262 39.013C59.5646 39.0343 59.8 39.0502 60.0316 39.0738C59.901 38.8824 59.7537 38.7906 59.5821 38.6463ZM64.8544 24.5241C64.8643 24.4778 64.7625 24.4155 64.7337 24.3722C64.5742 24.3943 64.3373 24.6881 64.3373 24.7579C64.3373 24.8278 64.4368 24.9311 64.6152 24.9531C64.8066 25.0001 64.9949 24.9265 64.9949 24.8445V24.7519C64.5978 24.6759 64.8635 24.6501 64.8544 24.5241ZM60.9268 39.0563C60.8827 39.0502 60.7111 39.0799 60.7119 39.1497C60.6975 39.3403 60.9488 39.3775 61.1674 39.3965C61.2555 39.4003 61.418 39.4185 61.4765 39.3099C61.4393 39.2226 60.9685 39.0639 60.9268 39.0563ZM52.8027 14.2885C52.7761 14.3401 52.9082 14.4214 53.1497 14.4404C53.035 14.3819 53.0282 14.2741 52.8004 14.2885H52.8027ZM63.5318 43.7478V43.7523C63.4452 43.7523 63.3161 43.9323 63.2797 44.132C63.2797 44.1768 63.3966 44.1464 63.4407 44.1411C63.5257 44.1487 63.6403 43.9528 63.6783 43.8966C63.6798 43.8503 63.6844 43.8041 63.692 43.7584C63.6377 43.7582 63.5834 43.7549 63.5295 43.7485L63.5318 43.7478ZM55.3401 13.5801C55.552 13.6166 55.6742 13.5558 55.7418 13.4731C55.5375 13.4473 55.1283 13.5429 55.3401 13.5801ZM54.6363 15.8928C54.6363 15.8928 54.8717 16.0348 54.8998 16.0447C55.0873 16.0652 55.1215 15.9619 55.23 15.9126C55.0463 15.8002 54.6515 15.7433 54.6363 15.8928ZM57.1236 37.2493C57.1192 37.2868 57.1166 37.3246 57.116 37.3624C57.1414 37.3629 57.1668 37.3649 57.192 37.3685C57.3043 37.3683 57.4147 37.339 57.5124 37.2834C57.5177 37.2424 57.5253 37.1559 57.5253 37.1149C57.4569 37.1908 57.2747 37.3009 57.1236 37.2493ZM55.3637 34.0946C55.3447 34.1348 55.4062 34.2578 55.4517 34.2525C55.4183 34.2022 55.3888 34.1494 55.3637 34.0946ZM54.7654 33.8197C54.6596 33.8316 54.5599 33.875 54.4791 33.9442C54.5672 33.9442 54.7919 33.9905 54.9924 33.9898C54.9399 33.9079 54.8595 33.8478 54.7661 33.8205L54.7654 33.8197ZM54.7874 34.8948C54.7619 34.8942 54.7365 34.8917 54.7115 34.8872C54.7039 34.9966 54.6834 35.2388 54.8815 35.2608C54.9254 35.2453 54.9628 35.2156 54.9878 35.1765C54.9795 35.0778 54.9499 34.9313 54.7881 34.8956L54.7874 34.8948ZM52.0677 36.4391C52.0525 36.4391 52.0244 36.4179 52.0093 36.4164C51.9941 36.4149 51.9766 36.4202 51.969 36.4164C51.9712 36.4607 51.9676 36.5051 51.9584 36.5485C51.913 36.5452 51.868 36.5589 51.8322 36.587C51.7964 36.6151 51.7724 36.6555 51.7648 36.7003C51.7716 36.7269 52.0313 36.7269 52.0449 36.7224C52.0783 36.6571 52.067 36.5113 52.0685 36.4399L52.0677 36.4391ZM55.3849 38.7405C55.3963 38.7465 55.4115 38.7716 55.4214 38.7815C55.3378 38.7443 55.0417 38.5985 54.8026 38.5765C54.7441 38.5765 54.5983 38.6167 54.5945 38.6736C54.5809 38.7837 54.7282 38.9667 54.8884 38.9827C55.1283 39.0032 55.3189 38.9439 55.5497 38.925C55.5428 38.8818 55.5237 38.8416 55.4946 38.809C55.4656 38.7764 55.4277 38.7529 55.3857 38.7412L55.3849 38.7405ZM56.3628 37.4004C56.2869 37.3867 56.1427 37.3624 56.069 37.3556C56.0669 37.311 56.0703 37.2664 56.0789 37.2227C55.6332 37.1764 55.1541 36.9349 54.8944 36.6441C54.8641 36.6183 54.7054 36.4164 54.5748 36.3898C53.9135 36.3283 53.5536 35.8401 52.6645 35.7497C51.7534 35.6776 51.3365 35.9411 50.9607 36.4422C51.0213 36.4423 51.0817 36.4474 51.1414 36.4574C51.3616 36.2843 51.9075 36.0732 52.2955 36.0975C52.3934 36.0967 52.4893 36.1249 52.5711 36.1787C52.524 36.2167 52.4853 36.2964 52.5939 36.3898C52.7905 36.4073 52.9636 36.4338 53.1724 36.4384C53.4473 36.4748 53.5597 36.7542 53.8451 36.7808C53.9613 36.7914 54.0972 36.7512 54.2605 36.837C54.3144 36.8727 54.2977 37.0109 54.4655 37.0253C54.4897 37.329 54.8079 37.329 55.107 37.4809C55.0891 37.5229 55.06 37.5593 55.023 37.586C54.9859 37.6128 54.9423 37.6289 54.8967 37.6327C54.899 37.668 54.8967 37.7035 54.8899 37.7382C55.2619 37.7754 55.5679 37.925 56.0227 37.966C56.2505 37.9911 56.6134 38.0161 56.7766 37.8089C56.6832 37.7474 56.5754 37.4771 56.3636 37.4011L56.3628 37.4004ZM56.782 37.8028L56.7766 37.8089L56.7835 37.8142L56.782 37.8028ZM53.3919 15.4175C53.3714 15.4623 53.1421 15.5026 52.9841 15.5694C52.9761 15.6022 52.974 15.6361 52.9781 15.6696C53.2575 15.6894 53.7214 15.5747 53.8892 15.5049C53.6796 15.4411 53.7669 15.4494 53.3919 15.4175ZM62.4673 23.6494C62.4787 23.6904 62.4946 23.7603 62.5151 23.6616C62.4989 23.6586 62.4829 23.6545 62.4673 23.6494ZM62.4506 23.6365V23.6426H62.4658C62.4605 23.6221 62.4544 23.6077 62.4506 23.6365ZM30.9413 20.9176L31.2223 21.4779C31.3609 21.5261 31.5067 21.5502 31.6535 21.5493C31.6968 21.5394 31.7492 21.5493 31.7925 21.5387C31.7887 21.5083 31.8137 21.4688 31.816 21.4362C31.5533 21.2221 31.3187 21.0406 30.9428 20.9176H30.9413ZM53.9416 19.8584C53.9436 19.8897 53.9418 19.921 53.9363 19.9518C54.0407 20.0453 54.1709 20.1054 54.3098 20.1242C54.3265 20.1287 54.3607 20.1394 54.3759 20.1303C54.3774 19.9685 54.1701 19.8827 53.9431 19.8584H53.9416ZM54.0448 15.047C53.9689 15.0151 54.0152 14.9605 53.9264 14.8952C53.6227 14.6856 53.0472 14.6978 52.6797 14.4594C52.6235 14.4676 52.5684 14.4824 52.5157 14.5034C52.4397 14.4199 52.3502 14.3834 52.2628 14.2688C51.7526 14.2384 51.6554 14.5292 51.6395 14.6598C51.6395 14.7 51.6342 14.7319 51.6304 14.7729C51.6266 14.8139 51.521 14.8367 51.4436 14.8534C51.4094 14.8914 51.1923 14.8656 51.1612 14.9825C51.4201 14.9885 51.6783 15.0121 51.9341 15.0531C51.8969 15.129 51.8361 15.1943 52.0487 15.2179C52.076 15.2222 52.1038 15.2202 52.1301 15.212C52.1565 15.2038 52.1806 15.1897 52.2006 15.1708C52.461 15.2421 53.0456 15.1366 53.0639 14.9741C53.1481 15.006 53.7328 15.2384 53.7328 15.2384C53.8634 15.2626 54.0463 15.2763 54.2164 15.2953C54.4127 15.3111 54.6102 15.3068 54.8056 15.2824C54.6507 15.1617 54.328 15.1746 54.0463 15.047H54.0448ZM57.8039 14.1853C57.7758 14.1754 57.5906 14.1982 57.5815 14.2202C57.5815 14.268 57.687 14.3022 57.8047 14.3128C57.917 14.3386 58.0318 14.3523 58.1471 14.3538C58.0437 14.2771 57.9271 14.22 57.8032 14.1853H57.8039ZM55.7258 15.5519C55.9005 15.6453 55.9437 15.6453 56.1343 15.6074C55.9058 15.5443 55.9126 15.4836 55.7251 15.5557L55.7258 15.5519ZM73.7066 52.0981C73.5373 52.0526 73.4173 52.1429 73.2412 52.1049C73.0354 52.029 72.734 51.6494 72.6398 51.4216C72.4533 51.3176 72.2513 51.2441 72.0415 51.2037C71.8806 51.2348 71.6839 51.2796 71.4926 51.3024C71.2109 51.3252 71.214 51.0807 70.8852 51.0746C70.7523 51.0837 70.684 51.1916 70.5321 51.2569C70.4975 51.2546 70.4628 51.2546 70.4281 51.2569C70.4647 51.1284 70.4773 50.9943 70.4653 50.8613C70.4517 50.7497 70.3287 50.7785 70.2102 50.6912C70.0295 50.5766 69.5269 50.2706 69.2528 50.266C68.9802 50.2789 68.7615 50.6115 68.5611 50.8734C68.5209 50.9425 68.4146 51.0723 68.3561 51.0686C68.3113 51.0686 68.2946 50.9304 68.3037 50.8909C68.1868 50.8772 68.0645 50.9015 67.9188 50.8909C67.9219 50.8134 67.903 50.7367 67.8643 50.6695C67.8256 50.6023 67.7687 50.5475 67.7001 50.5113C67.6242 50.4817 67.4723 50.4915 67.4974 50.3298C67.593 49.8302 68.1807 49.2137 68.4958 48.8872C68.5019 48.7528 68.3181 48.7156 68.2498 48.5478C68.1989 48.3557 68.0562 47.822 68.0782 47.6162C67.8079 47.5403 67.5293 46.986 67.2582 46.9594C67.2247 46.9617 67.1911 46.9602 67.158 46.9549C67.1625 46.9549 67.158 46.9298 67.158 46.9215C66.9955 46.9215 66.7351 46.7696 66.6204 46.7096C66.4921 46.7059 66.3167 46.6907 66.1748 46.6907C65.7078 46.5844 65.0032 46.6094 64.9038 46.1091C64.8278 46.103 64.6722 46.0483 64.6486 45.9906C64.4626 45.5351 64.3222 45.5897 64.0071 45.2314C63.8446 45.2314 63.6669 45.2109 63.4991 45.2025C63.4346 44.9558 63.5447 44.7196 63.301 44.6179C63.039 44.5222 62.6586 44.4395 62.5478 44.176C62.5478 44.1396 62.5614 44.0689 62.5614 44.0325C62.6543 44.0596 62.7538 44.0532 62.8424 44.0143C62.6729 43.9754 62.5012 43.9468 62.3283 43.9285C62.2797 43.9467 61.8796 43.9505 61.8531 43.9862C61.6875 44.1904 61.5334 44.179 61.2456 44.1988C61.1272 44.1935 60.8713 44.1434 60.8857 43.9756C60.5471 43.9581 60.2024 43.9285 59.8547 43.9057C59.7658 43.8882 59.6451 43.7539 59.6542 43.5633C59.3839 43.4942 58.9443 43.3552 58.895 43.0569C58.8084 43.047 58.6414 43.0265 58.5541 43.0265C58.5214 43.2414 58.8342 43.1783 58.8919 43.3985C58.736 43.3955 58.5804 43.3841 58.4258 43.3644C58.2413 43.4691 57.9406 43.4038 57.9049 43.6764C57.8745 43.892 58.0879 44.0279 58.0879 44.2557C58.0757 44.3104 57.936 44.5328 57.876 44.5382C57.6407 44.5101 57.567 44.1585 57.6027 43.9672C57.6027 43.8442 57.7599 43.5041 57.8472 43.2322C57.9017 43.2294 57.9534 43.2071 57.9929 43.1693C58.0323 43.1315 58.0569 43.0808 58.0621 43.0265C58.0621 43.0196 57.9816 42.8124 57.9057 42.7987C57.6779 42.7987 57.5693 43.0409 57.3051 43.1024C56.785 43.2079 56.4858 43.2611 55.9855 43.3727C55.7251 43.4334 55.5428 43.4608 55.4115 43.7523C55.3758 43.8579 55.3052 44.1198 55.1905 44.1957C55.0911 44.2269 54.8709 44.3013 54.8436 44.4827C54.7938 44.4968 54.7492 44.525 54.7153 44.564C54.7195 44.6009 54.7164 44.6383 54.7061 44.6741C54.6036 44.7067 54.6181 44.6953 54.4662 44.6574C54.4229 44.6794 54.3462 44.7462 54.3045 44.7705C54.3394 44.7379 54.4176 44.6733 54.4518 44.6376C54.1481 44.3863 54.1686 43.8563 53.5855 43.7888C53.098 43.7546 52.8156 44.0925 52.2841 44.0583C51.931 44.0204 51.9705 43.7022 51.7526 43.5716C51.4406 43.4016 51.045 43.2201 51.0647 42.7941C51.0943 42.4145 51.1353 42.0599 51.1589 41.6666C51.2971 41.4935 51.3715 40.7738 51.3867 40.6037C51.4005 40.5117 51.4084 40.4188 51.4102 40.3258C51.0556 40.221 50.9615 39.9044 50.4672 39.8566C49.7535 39.8027 49.2038 39.8664 48.5273 39.8103C48.4685 39.8053 48.4135 39.7797 48.3718 39.738C48.3301 39.6963 48.3045 39.6412 48.2995 39.5825C48.2959 39.5512 48.2985 39.5194 48.3071 39.4891C48.4073 39.423 48.6867 39.3372 48.7034 39.1489C48.7201 38.8452 48.7475 38.5484 48.7794 38.2583C48.8338 38.2585 48.8881 38.2628 48.9418 38.2712C48.9312 38.3024 48.9418 38.3707 48.9312 38.4026C49.0732 38.2302 49.1985 38.1148 49.225 37.8111C49.26 37.4512 49.6191 37.1566 49.6487 36.8947C49.6525 36.8545 49.6624 36.7694 49.6624 36.7284C49.5735 36.7216 49.2577 36.6677 49.1985 36.6525C49.0737 36.5911 48.9359 36.5606 48.7968 36.5637C48.2418 36.5189 47.5334 36.4429 47.4696 36.9866C47.4378 37.2645 47.0968 37.4824 46.9822 37.6919C46.964 37.7443 46.8349 37.9706 46.6739 37.9653C46.6155 37.9653 46.5221 37.8415 46.2996 37.8225C45.8813 37.7899 45.5548 38.0161 45.1668 37.9926C45.0484 37.9789 45.015 37.8187 44.8434 37.7428C44.3164 37.5424 44.3529 37.2485 44.0264 36.8818C43.9019 36.7421 43.6582 36.4619 43.5921 36.3101C43.5162 36.1301 43.6346 36.0413 43.5708 35.8651C43.539 35.8105 43.4023 35.6374 43.444 35.4855C43.4813 35.1446 43.5101 34.8151 43.5359 34.4613C43.6202 34.1864 43.7736 34.0877 43.8017 33.7468C43.7985 33.6458 43.7806 33.5458 43.7485 33.4499C43.7409 33.4408 43.7318 33.4165 43.7409 33.4074C43.75 33.3983 43.7827 33.4264 43.7918 33.4165C43.8024 33.3801 43.7098 33.2692 43.7098 33.2282C43.772 32.6884 44.0515 32.2192 44.5161 32.1015C44.7211 32.04 44.8882 32.1888 45.0628 32.0484C45.3285 31.857 45.6337 31.4288 46.2237 31.4614C46.4515 31.4857 46.5471 31.6672 46.7696 31.6824C46.8554 31.6824 46.9974 31.5564 47.0832 31.5609C47.4901 31.5981 47.8994 32.2275 48.5007 32.0324C48.2676 31.8623 48.4574 31.7105 48.5098 31.4516C48.4126 31.4645 48.4271 31.5055 48.2274 31.4296C48.5827 31.3536 48.9958 31.4212 49.3275 31.3711C49.3275 31.4083 49.4111 31.5229 49.4559 31.5229C49.5735 31.5374 49.6836 31.3893 49.9722 31.4197C50.4573 31.4539 50.6327 31.9011 51.0048 31.9231C51.1384 31.9337 51.2842 31.7112 51.4671 31.7264C52.3623 31.8153 52.0358 32.8653 52.3023 33.4947C52.4397 33.8068 52.6189 33.923 52.8551 34.2214C52.953 34.421 52.9181 34.6769 53.2218 34.7149C53.5688 34.7399 53.6872 34.4112 53.7206 34.0224C53.7495 33.6808 53.5824 33.5016 53.5331 33.2738C53.5394 33.2439 53.542 33.2133 53.5407 33.1827C53.5695 32.5965 53.0479 32.3839 53.0806 31.7765C53.1967 30.4562 54.1693 30.4714 55.1465 30.0993C55.1336 30.091 55.1085 30.0705 55.0956 30.0614C55.1928 29.9923 55.1974 29.9164 55.4464 29.8647C55.5679 29.8602 55.7182 29.722 55.9521 29.7022C56.0348 29.7022 56.1457 29.5838 56.195 29.5329C56.1241 29.4793 56.0495 29.4306 55.9718 29.3871C55.9809 29.3522 55.9764 29.2831 55.9809 29.2474C56.1138 29.255 56.2474 29.2854 56.296 29.1032C56.2254 29.0736 56.107 29.0554 56.0356 28.9217C56.1115 28.9301 56.2953 28.8883 56.3082 28.7365C56.3145 28.679 56.3178 28.6212 56.318 28.5634C56.2892 28.5451 56.2155 28.5565 56.1814 28.5489C56.1009 28.4593 56.1905 28.4654 56.1966 28.2893C56.2026 28.1131 56.1343 27.7927 56.1343 27.6758C56.132 27.6005 56.1433 27.5254 56.1677 27.4541C56.1867 27.6401 56.3644 27.902 56.3492 28.0448C56.3492 28.0941 56.3423 28.1845 56.3378 28.2338C56.3378 28.2604 56.3811 28.3394 56.4092 28.3462C56.4532 28.3371 56.8845 27.7684 56.8974 27.6879C56.892 27.5794 56.7706 27.5004 56.7402 27.344C56.7754 27.3204 56.8093 27.2951 56.8419 27.2681C56.8655 27.3007 56.9262 27.4146 56.971 27.4199C57.0743 27.4199 57.5025 26.8732 57.5488 26.7495C57.5488 26.7495 57.3795 26.5976 57.3863 26.527C57.3727 26.4898 57.4622 26.442 57.507 26.423C57.5511 26.4336 57.6369 26.445 57.6802 26.4594C57.9634 26.4594 58.1357 26.5156 58.4098 26.4594C58.3187 26.3752 58.1061 26.4314 57.9322 26.4025C57.8696 26.3876 57.8053 26.3802 57.7409 26.3805C58.1433 26.2021 58.7705 26.3752 59.1653 26.1816C59.2192 26.2415 59.551 26.2423 59.7894 26.2104C59.7886 26.1716 59.7901 26.1328 59.7939 26.0942C59.7253 26.1291 59.6542 26.159 59.5813 26.1838C59.494 26.1762 59.4006 25.9295 59.4067 25.8619C59.3619 25.8467 59.3414 25.7442 59.3353 25.7032C59.3839 25.0487 60.027 25.3418 60.3535 25.114C60.5395 25.0647 60.5577 25.029 60.7817 25.0579C60.8887 25.0808 60.9999 25.0753 61.104 25.0418C61.2082 25.0084 61.3018 24.9482 61.3755 24.8673C61.3459 24.828 61.3204 24.7858 61.2995 24.7412C61.2995 24.7276 61.2995 24.701 61.2897 24.6926C61.292 24.6768 61.292 24.6607 61.2897 24.6448C61.3208 24.6539 61.4286 24.6638 61.4727 24.6714C61.5607 24.6835 62.0315 24.8088 62.1993 24.7473C62.3709 24.6661 62.3625 24.4717 62.6336 24.496C62.6389 24.7086 62.6115 24.7238 62.9008 24.7762C62.4802 24.7374 61.8379 24.9075 61.8272 25.2568C61.8272 25.3783 62.0801 25.6934 62.1833 25.7123C62.301 25.7123 62.6708 25.3631 63.0291 25.3061C63.1051 25.3107 64.3001 25.0784 64.3298 24.9546C64.3206 24.7883 63.8863 24.6911 63.7694 24.6737C63.2584 24.5841 62.4711 24.0245 62.4445 23.6312C62.3206 23.5879 62.1937 23.5537 62.0649 23.5287C62.1712 23.4209 62.7983 23.4566 62.815 23.1362C62.8014 22.8659 62.276 22.815 61.8903 22.7565C61.0915 22.6449 60.7407 23.0451 60.1804 23.0451C60.4355 22.6594 60.7992 22.8393 61.2084 22.5736C61.4719 22.383 61.2722 22.2334 61.664 22.1856C62.3473 22.1142 62.7103 22.2797 63.3936 22.3959C64.2774 22.5477 64.928 22.9706 65.4375 22.5014C65.6752 22.2805 66.9143 22.5606 66.9143 22.2046C66.9006 21.9403 66.7784 21.8044 66.6106 21.6161C66.4967 21.5842 66.6645 21.5296 66.4739 21.4233C66.4785 21.3815 66.4617 21.3337 66.4663 21.2919C65.9536 21.3603 65.4343 21.3618 64.9212 21.2965C64.8591 21.2881 64.8007 21.2617 64.7534 21.2206C65.0822 21.1651 65.9682 21.2783 66.0806 21.0847C66.0867 21.0323 65.9538 20.9844 65.9348 20.9328C65.5294 20.8797 64.7086 20.5995 64.6805 20.2199C64.6745 20.2145 64.6805 20.1978 64.6805 20.188C64.3115 20.112 64.0875 19.9222 63.8674 19.7704C63.9433 19.7453 64.1111 19.7567 64.1111 19.6269C64.1111 19.5244 63.9592 19.3991 63.9805 19.3072C63.8165 19.2381 63.2698 18.9344 63.4088 18.7568C63.5682 18.5426 62.8773 18.3665 62.7953 18.0734C62.6903 18.023 62.5921 17.9594 62.503 17.8844C62.3929 17.9178 62.0785 17.9603 62.1233 18.0977C62.2076 18.3346 61.9115 18.3255 61.6002 18.3969C61.3891 18.4493 61.2206 18.5935 61.0368 18.5594C60.7278 18.5054 60.5 18.1349 60.2897 18.0871C60.0005 18.0301 60.1417 17.5693 60.0938 17.3278C59.9959 17.0378 59.1068 17.0765 59.0726 16.7075C58.5814 16.5883 58.652 16.4144 58.1441 16.3385C58.0385 16.318 57.8867 16.2998 57.7561 16.2831C57.2398 16.2072 56.9361 15.9969 56.4205 15.9293C56.151 15.8944 55.8845 15.9293 55.8754 16.1107C55.8807 16.214 56.5124 16.4304 55.9156 16.5739C55.6757 16.6286 56.2307 16.9399 56.2641 17.0841C56.3196 17.4258 55.8086 17.4243 55.5603 17.4425C55.798 17.6915 56.2733 17.8069 56.4813 18.0286C56.6445 18.2253 56.5215 18.5016 56.5048 18.8395C56.4729 19.0331 55.372 19.3968 54.9863 19.4128C55.637 19.696 55.3485 20.2616 55.5937 20.5061C55.5299 20.563 55.3082 20.7916 55.2801 20.9047C55.0448 20.9001 54.8443 20.9389 54.6651 20.8288C54.2043 20.5365 53.5468 20.0407 53.5513 19.7294C53.5665 19.3953 53.606 19.122 53.0821 18.8866C52.6918 18.7719 52.3008 18.6839 51.9083 18.5928C51.1808 18.2723 50.4271 18.015 49.6555 17.8236C49.5394 17.7864 49.1005 17.5883 48.8355 17.5647C48.5508 17.5549 48.4081 17.6991 48.1287 17.6763C48.1393 17.4334 47.9244 16.8844 47.5152 16.8411C47.3231 16.8374 47.2305 16.9087 47.0422 16.9171C47.1181 16.8115 47.0551 16.7508 47.0976 16.4775C47.1477 16.0713 47.4377 15.7379 47.8933 15.5398C48.0558 15.4396 48.4073 15.1313 48.5501 15.1062C48.8636 15.0744 49.1355 15.2938 49.1673 15.066C49.1765 14.9104 48.4931 14.8792 48.2448 14.7942C48.3777 14.8268 47.8515 14.5968 49.3238 14.9233C49.7125 14.9802 49.4931 14.7395 49.7125 14.7524C49.8455 14.7534 49.9783 14.7621 50.1103 14.7782C50.5553 14.8094 50.7997 14.6021 51.0974 14.5163C51.0974 14.4685 51.1095 14.432 51.1095 14.3827C50.5021 14.2581 49.9015 14.2673 49.6449 13.9894C49.7528 13.9889 49.8607 13.996 49.9676 14.0106C50.1954 14.0797 50.4072 14.2331 50.7565 14.2673C51.0465 14.2824 51.6926 14.2832 51.7177 14.183C51.7245 14.0129 51.6934 13.9408 51.6607 13.9096C52.0123 13.9575 52.1429 14.1192 52.382 14.1503C52.581 14.1503 52.77 14.1936 52.9796 14.208C52.9037 14.1572 52.972 14.003 53.196 14.1868C53.3175 14.2862 54.2202 14 54.2483 13.8899C54.24 13.8049 53.8565 13.6925 53.8512 13.634C53.8611 13.5672 53.6128 13.4313 54.1838 13.3524C54.2597 13.2817 54.1929 13.2977 54.1929 13.1458C54.0182 13.1338 53.8486 13.0818 53.6971 12.994C54.1223 13.0441 54.5095 13.0927 54.7487 13.1276C54.7373 13.1853 54.6606 13.2711 54.8815 13.3038C55.208 13.3493 55.4768 13.1322 55.6992 13.1519C55.8959 13.2035 56.8078 13.6226 56.9657 13.713C56.8776 13.7062 56.5656 13.6614 56.5534 13.7426C56.5686 13.7472 56.6339 13.8284 56.6901 13.8466C56.9179 13.8656 57.0188 13.8094 57.2398 13.8466C57.5936 13.9157 58.6725 14.4191 58.6968 14.6104C58.6968 14.7228 58.3475 14.7995 58.1881 14.8504C58.0719 14.8549 57.7667 14.7646 57.7584 14.8906C57.7546 14.9536 58.0006 15.0576 58.0689 15.0941C57.8091 15.1055 57.5489 15.0994 57.2899 15.0759C57.0242 15.0341 56.7949 14.9954 56.539 14.9658C56.2968 14.9164 55.8443 14.9878 55.8306 15.0683C55.8382 15.1806 56.372 15.3462 56.5838 15.3841C56.7956 15.4221 56.9019 15.3264 57.1153 15.3469C57.2443 15.3689 57.2337 15.416 57.4106 15.4449C57.5305 15.4584 57.6517 15.4381 57.7606 15.3864C58.2671 15.5906 58.5412 15.7721 59.1136 15.9839C58.8358 16.1844 59.8463 16.3598 60.2708 16.5291C60.7111 16.7189 61.011 16.7478 61.5167 16.9399C61.5554 16.9626 61.6124 17.0545 61.6883 17.0674C61.7467 17.078 61.8531 17.0629 61.8531 17.0082C61.8158 16.788 60.8987 16.4577 60.601 16.2337C60.6836 16.2606 60.7694 16.2767 60.8561 16.2816C61.0429 16.422 62.1104 16.8191 62.4248 16.8951C62.4908 16.8153 62.6525 16.7257 62.6525 16.6437C62.6525 16.5617 62.3488 16.4661 62.3488 16.4091C62.3419 16.3588 62.3391 16.308 62.3405 16.2573C62.2456 16.2449 62.1517 16.2256 62.0596 16.1996C62.0201 16.0652 61.9161 16.1236 61.5911 16.0151C61.4848 15.9581 61.251 15.763 61.2115 15.6628C61.1462 15.6491 61.0558 15.6354 60.9943 15.6195C60.9986 15.583 60.9969 15.5461 60.989 15.5102C61.068 15.5436 61.1531 15.5602 61.2388 15.5588C61.2342 15.5284 61.2388 15.5041 61.2342 15.4737C61.1201 15.4609 61.008 15.4333 60.9009 15.3917C61.0091 15.3719 61.1195 15.3675 61.2289 15.3788C62.0436 15.5504 62.077 16.0295 62.8993 16.2193C63.0846 16.2512 63.096 16.1502 63.096 16.0614C63.4103 16.1221 63.4429 16.0789 63.4429 16.0546C63.4355 16.024 63.4329 15.9925 63.4353 15.9612C63.635 16.0075 63.9015 16.0568 63.9015 15.9521C63.897 15.8222 63.7694 15.7569 63.4581 15.6863C63.358 15.6634 63.2608 15.6296 63.1681 15.5853C63.0238 15.3986 62.9676 15.5094 62.6024 15.4221C62.3686 15.3644 62.2752 15.2391 62.2274 15.0979C61.8895 15.0121 61.4522 14.8511 61.3982 14.6795C61.1705 14.6606 61.0945 14.5869 60.9359 14.5277C61.0877 14.4267 61.21 14.4799 61.4673 14.4799C61.3921 14.4282 61.3083 14.3901 61.2198 14.3675C61.0391 14.3295 60.8987 14.284 60.7271 14.2536C60.8539 14.1913 61.0558 14.2422 61.2935 14.2764C61.1652 14.1663 61.0596 14.0638 60.8258 14.019C60.7357 13.9892 60.6424 13.9704 60.5479 13.9628C60.5527 13.925 60.5506 13.8867 60.5418 13.8497C60.0863 13.716 59.8304 13.587 59.3794 13.4404C59.4272 13.3045 59.0051 13.243 58.8274 13.2073C58.7044 13.1982 58.5563 13.1519 58.4106 13.1314C57.8525 13.0281 57.7455 12.7814 57.3658 12.6333C57.138 12.521 56.4342 12.3987 56.1039 12.3441C55.7957 12.2924 55.7068 12.4572 55.4206 12.4094C55.2885 12.398 55.2217 12.3205 55.0288 12.2932C54.8709 12.2621 54.7752 12.3137 54.6879 12.3137C54.612 12.2985 54.694 12.2173 54.6879 12.1861C54.6985 12.0343 54.4715 11.7913 54.0205 11.7412C53.3372 11.6509 52.2074 11.6266 52.1763 11.8619C52.1687 11.9432 52.341 11.9705 52.3342 12.0533C52.3259 12.117 52.0852 12.1573 51.9804 12.1497C51.767 12.1299 51.8111 12.0874 51.8172 12.0229C51.8093 12.0044 51.8059 11.9842 51.8074 11.9642C51.8089 11.9441 51.8151 11.9247 51.8255 11.9075C51.7496 11.9014 51.6942 11.8794 51.6942 11.8316C51.7124 11.6326 52.2697 11.6797 52.4534 11.5726L51.8954 11.4557C51.4291 11.4101 50.9584 11.4505 50.5067 11.5749C50.449 11.6083 50.5067 11.7161 50.3685 11.7435C50.0974 11.7807 50.0094 11.8194 49.9934 12.0085C49.9934 12.0844 50.2326 12.2028 50.2326 12.2028C50.2326 12.2028 51.0116 12.2932 51.1786 12.3433C51.1786 12.3782 51.1703 12.3949 51.1703 12.4291C50.9164 12.3805 50.6594 12.3508 50.4011 12.3403C50.4338 12.4511 50.6737 12.4769 50.7641 12.568C51.042 12.6037 51.3214 12.6022 51.5992 12.6386C51.7578 12.7298 51.9314 12.792 52.1117 12.8224L52.1831 12.8285C52.1725 12.9522 52.4443 12.9803 52.4306 13.0722C52.417 13.1641 52.0237 13.1177 51.9235 13.1937C51.7784 13.3129 51.8156 13.429 51.5438 13.5733C51.1171 13.8011 50.7906 13.5475 50.7906 13.4457C50.799 13.3212 51.089 13.3918 51.1118 13.2582C51.0959 13.1929 50.6289 12.9302 50.4839 12.9211C49.9661 12.8846 50.2941 13.2597 49.7383 13.2316C49.7383 13.0676 49.7383 12.9879 49.3678 12.8846C49.4253 12.8461 49.4882 12.8164 49.5546 12.7966C49.279 12.7108 48.8932 12.7518 48.6905 12.6288C48.7991 12.609 49.14 12.5604 49.1529 12.4572C49.1651 12.3053 48.6693 12.2886 48.6617 12.1702C48.6822 11.9796 48.4612 11.8429 48.0391 11.7716C48.1811 11.7291 48.2669 11.7063 48.3223 11.6243C48.2593 11.6243 48.1636 11.6144 48.0998 11.6144C48.2213 11.4739 48.2046 11.5749 48.5842 11.5924C48.9316 11.6181 49.2795 11.5501 49.5918 11.3957C49.5918 11.3957 49.8955 11.3312 49.9091 11.3198C49.9091 11.2856 49.919 11.275 49.919 11.2393C49.2987 11.2097 48.856 11.1087 48.2646 11.0769C47.913 11.0533 47.7938 11.1437 47.7938 11.1528C47.7938 11.1771 47.7536 11.2135 47.7847 11.2135C47.6724 11.2211 47.5198 11.2044 47.396 11.1999C47.3785 11.2431 47.396 11.2606 47.3785 11.3039C47.4833 11.4299 47.3421 11.5119 47.6063 11.6136C47.5972 11.6425 47.5896 11.6767 47.5775 11.7306C47.3451 11.7389 47.4415 11.8019 47.4491 11.8908C47.2365 11.9075 46.9632 11.8726 46.948 11.9933C46.9321 12.0882 47.0725 12.0988 47.0543 12.1922C47.0361 12.2856 46.8136 12.2461 46.8 12.3676C46.762 12.6409 47.9389 12.4959 47.9313 12.7837C47.8794 12.8685 47.8207 12.949 47.7559 13.0244C47.8637 13.0168 47.9837 12.9803 48.1355 12.9568C48.3048 13.3076 47.2031 13.0957 47.1166 13.5072C46.5206 13.5634 47.0186 13.3151 46.8956 13.2035C46.8493 13.1603 46.3983 13.0919 46.1212 13.0843C45.8076 13.0843 45.671 13.1603 45.6391 13.3432C45.3278 13.3243 44.8525 13.1527 43.8578 13.1618C42.9148 13.1716 42.227 13.0411 42.0751 12.7374C41.9324 12.7487 41.6636 12.7692 41.4032 12.8049C41.6028 12.7487 41.5413 12.6796 41.817 12.6834C42.2998 12.6546 42.4775 12.8664 43.1396 12.8566C43.561 12.8641 43.9444 12.8421 44.1266 12.7313C44.0704 12.7032 43.9892 12.7024 43.9748 12.6371C43.9178 12.6493 43.7235 12.6485 43.7326 12.5855C43.7417 12.5225 43.8335 12.5316 43.9657 12.5172H43.971C44.2823 12.5172 44.3301 12.5415 44.6543 12.4648C44.3339 12.3547 42.9991 12.2499 43.0234 12.0267C43.0568 11.8581 42.6612 11.7321 42.7068 11.5066C42.7212 11.4367 43.0819 11.3942 43.1153 11.297C43.1479 11.1801 42.8761 11.1695 42.5838 11.1831C42.3257 11.1589 42.0994 11.2264 42.0721 11.3031C42.0994 11.3031 42.0652 11.335 42.0721 11.3616C41.7911 11.417 41.9096 11.3616 41.6218 11.3813C41.5049 11.3813 41.3288 11.4109 41.3128 11.4732C41.284 11.5392 41.47 11.8012 41.5672 11.8779C41.4972 11.9106 41.4218 11.9301 41.3447 11.9356C41.0319 11.9356 41.205 11.7928 41.1329 11.7222C41.0569 11.6334 40.8717 11.5886 40.6553 11.5818C40.5393 11.5815 40.4234 11.5889 40.3083 11.6038C40.3455 11.6463 40.3463 11.6319 40.3554 11.7055C40.1954 11.741 40.0334 11.7664 39.8702 11.7814C39.7943 11.6706 39.6683 11.6152 39.2256 11.6584C38.9864 11.682 38.852 11.7655 38.7146 11.8103C38.6615 11.7556 38.7427 11.6076 38.5248 11.6288C37.9637 11.6767 36.5811 12.0457 36.4528 12.3471C36.4429 12.3866 36.6874 12.423 36.8514 12.4109C37.0224 12.3729 37.1971 12.3546 37.3723 12.3562C37.1976 12.4374 36.7846 12.4131 36.7307 12.5536C36.6768 12.6941 37.4975 12.5749 37.8536 12.5384C38.1148 12.5172 38.3919 12.4876 38.6698 12.4625C38.7947 12.458 38.9197 12.4693 39.0419 12.4959C38.8505 12.5248 38.7617 12.5263 38.5218 12.5483C37.8726 12.6121 37.4034 12.6842 36.9911 12.8353C37.1826 12.9573 37.4099 13.0109 37.6357 12.9871C37.8491 12.9583 38.3259 12.9036 38.4785 12.9461C38.6592 12.9902 38.436 13.1071 38.7146 13.0881C39.1823 13.054 39.6515 13.0122 40.1527 13.0001C40.4305 12.8991 40.7229 12.9044 41.0539 12.8672C40.8778 12.9059 40.7449 12.9545 40.7221 13.019C40.6993 13.0836 40.7753 13.1101 40.9104 13.095C41.1761 13.095 41.6317 12.997 41.8473 12.9325C41.8473 13.2096 41.0691 13.0084 40.9848 13.2855C40.962 13.3486 41.1025 13.527 41.0266 13.527C40.6727 13.527 40.6857 13.3478 40.41 13.2886C40.3341 13.2734 40.2536 13.2521 40.1777 13.2445C39.8171 13.2612 39.483 13.2916 39.1337 13.3098C38.7974 13.3098 38.5947 13.4123 38.2302 13.4488C37.5924 13.5186 37.6342 13.407 37.6418 13.3797C37.6691 13.2969 38.1338 13.2855 38.2492 13.2392C37.887 12.9606 37.963 12.9909 37.0632 13.1352C36.0959 13.2666 35.5394 12.9773 34.6473 13.1215C34.3694 13.1587 34.481 13.2802 34.2479 13.3379C34.096 13.3531 34.0133 13.2772 33.9875 13.2013C33.9579 13.2111 33.932 13.221 33.907 13.2316C32.1511 14.3447 30.5108 15.6304 29.0105 17.0697L30.8259 20.6792C30.8765 20.6826 30.9272 20.6826 30.9778 20.6792C31.0028 20.8728 31.5411 20.6914 31.6209 20.9487C31.6474 21.0505 32.0088 21.0292 32.1523 21.1302C32.2023 21.1546 32.2555 21.1718 32.3103 21.1811C32.3467 21.2866 32.4834 21.2995 32.4621 21.4051C32.434 21.4863 32.2753 21.6237 32.1812 21.6996C32.1341 21.5949 32.0073 21.5387 31.7689 21.5516C31.715 21.5736 31.5411 21.585 31.5222 21.6412C31.4903 21.869 31.8259 21.9289 31.7879 22.1666C31.7742 22.2228 31.7439 22.3131 31.7036 22.4255L35.6093 30.2003L35.7026 30.3871L36.5204 32.0256L36.5819 32.0947C36.6259 32.0529 36.6229 32.0643 36.7853 32.1053C36.7474 32.5366 37.2903 32.5927 37.4467 32.9253C37.5066 33.1288 37.3601 33.2829 37.5066 33.4477C37.6585 33.6246 37.9622 33.7248 38.1421 33.9184C38.5742 34.4142 38.8886 35.0014 39.0616 35.6359C39.0775 35.733 39.2286 35.8241 39.2135 36.0671C39.2135 36.2744 39.0024 36.3579 38.975 36.5614C38.975 36.6821 39.0707 36.9327 39.2324 36.941C39.3084 37.1908 39.855 37.3609 40.0745 37.5947C40.1253 37.6327 40.2263 37.7003 40.2772 37.739C40.5179 37.8681 40.65 37.8415 40.9074 37.9736C41.145 38.1255 41.2171 38.3449 41.4814 38.4436C41.7091 38.5195 41.8458 38.4231 42.0523 38.5264C42.271 38.6448 42.87 39.1193 43.1221 39.152C43.2406 39.1618 43.4365 39.1421 43.5777 39.2279C43.6361 39.2575 43.8055 39.4101 43.9657 39.4253C44.3126 39.4504 44.3969 39.1004 44.7598 39.1216C44.9155 39.1496 45.0627 39.2127 45.1903 39.3061L45.3126 39.316C45.8372 39.6129 45.92 40.3789 46.538 40.7214C46.9328 40.9416 47.2062 40.8732 47.5919 41.0699C47.844 41.2096 48.0338 41.4077 48.4187 41.4548C48.5227 41.4586 48.6662 41.3903 48.8128 41.3948C48.8527 41.403 48.8935 41.4064 48.9342 41.4047C49.0254 41.8648 49.3488 42.044 49.6525 42.3766C49.7201 42.4525 49.8454 42.5375 49.8902 42.7106C49.9661 43.0143 49.7459 43.2322 50.0344 43.4464C50.1022 43.4479 50.1699 43.4532 50.2371 43.4623C50.2248 43.4362 50.2196 43.4073 50.222 43.3785C50.2244 43.3497 50.2344 43.322 50.2508 43.2983C50.2675 43.2983 50.9136 43.7318 50.9805 43.8556C51.0283 43.9672 51.0252 44.1775 51.3115 44.2709C51.3039 44.2975 51.373 44.3878 51.4034 44.3878C51.5066 44.3954 51.8658 44.3119 52.0108 44.4546C52.1626 44.6224 52.3289 44.9717 52.6539 45.0021C52.7723 45.0195 52.9226 44.9307 52.9803 44.7492C52.9522 44.7325 52.833 44.627 52.833 44.5716C52.8543 44.4956 53.4283 44.1426 53.5802 44.1509C53.7912 44.1692 53.6257 44.5708 53.8436 44.6961C53.8079 44.7462 53.7161 44.8153 53.7054 44.8684C53.7054 44.9102 53.8899 44.9998 53.9195 45.0286C53.9309 45.0286 53.9552 45.0127 53.9681 45.0127C53.9512 45.0493 53.9369 45.0871 53.9256 45.1258C53.9066 45.4607 54.2498 45.4136 54.2293 45.8092C54.2081 45.9906 54.1109 46.0559 54.0851 46.2723C54.0851 46.3809 54.1777 46.5274 54.1678 46.6793C54.1628 46.7096 54.16 46.7404 54.1595 46.7711C54.1367 46.8053 54.0835 46.8721 54.0668 46.9093C54.063 46.9511 54.1731 47.0771 54.2491 47.1029C54.0706 47.5828 53.5893 47.4067 53.3213 47.7977C53.1375 48.0801 52.9598 48.5319 52.4101 48.5068C52.4162 49.3169 52.1064 49.6237 52.0639 50.0299C52.0404 50.2835 52.0427 50.613 52.3259 50.6479C52.4291 50.6532 52.4489 50.5667 52.622 50.6851C52.505 50.9509 52.1596 50.9987 51.9485 51.2546C51.8098 51.3909 51.7165 51.5667 51.6812 51.758C51.6547 52.0533 51.8969 52.4337 52.095 52.6319C52.1528 52.6827 52.3228 52.6751 52.376 52.7837C52.4124 52.8817 52.4405 53.1353 52.5643 53.2734C52.6167 53.3038 52.7541 53.2985 52.8072 53.4071C52.9455 53.7124 53.0571 54.0292 53.1405 54.3539C53.2385 54.7145 53.3061 55.0964 53.4184 55.4928C53.486 55.7471 53.7396 55.8724 53.7138 56.1267C53.6978 56.3348 53.5984 56.4927 53.7335 56.6263C54.0501 56.9521 54.2741 57.1624 54.7965 57.3241C55.0493 57.4076 55.1511 57.4501 55.3606 57.6597C55.5466 57.8282 55.7554 57.8237 56.0204 57.9285C56.3537 58.1084 56.5899 58.3013 56.7151 58.6809C56.7278 59.078 56.7169 59.4756 56.6825 59.8714C56.6415 60.0939 56.4228 60.4788 56.3894 60.6914C56.3477 60.8903 56.3226 61.0855 56.2884 61.3132C56.2231 61.4484 56.0979 61.702 56.0834 61.7969C56.0834 61.8379 56.069 61.8804 56.0629 61.9199C55.9756 62.383 55.6605 62.6511 55.5694 63.1651C55.5406 63.3769 55.3082 63.5569 55.3728 63.7846C55.3196 64.1134 55.2794 64.4171 55.2209 64.7208C55.063 65.007 55.0182 65.2075 54.8519 65.4869C54.817 65.5309 54.7388 65.5294 54.6803 65.5689C54.5892 65.6448 54.5163 65.8012 54.4275 65.8946C54.2445 66.0419 53.959 66.3069 53.9044 66.5696C53.9008 66.58 53.898 66.5907 53.896 66.6015L55.6324 70.0591C55.7471 69.9711 55.7395 69.8974 55.8708 69.8238C56.1366 69.7205 56.5177 69.6613 56.5845 69.4624C56.6468 69.2171 55.9308 69.3978 56.0068 69.0865C56.0614 68.962 56.2922 68.8291 56.5648 68.7881C56.6665 68.7646 57.116 68.9324 57.192 68.8367C57.356 68.609 57.4061 68.4526 57.7439 68.2559C57.668 68.2514 57.5868 68.2278 57.6118 68.1268C57.7705 68.1063 57.7978 68.1967 57.9983 68.1823C58.0264 68.1724 58.1835 68.1284 58.1942 68.0486C58.2215 67.9864 58.1425 68.0145 58.0818 67.9644C58.0031 67.9981 57.9219 68.0255 57.8388 68.0463C57.7067 68.0608 57.583 67.8292 57.6171 67.6811C57.6261 67.6383 57.6516 67.6007 57.6882 67.5765C57.7247 67.5523 57.7693 67.5435 57.8123 67.5521C58.1418 67.5202 58.1547 67.6576 58.4895 67.6409C58.592 67.6265 58.8502 67.5498 58.8904 67.4944C58.8936 67.4597 58.9039 67.4261 58.9208 67.3957C59.0726 67.2438 58.8995 67.1155 59.1486 66.972C59.3308 66.8649 59.8038 66.9409 60.0733 66.8649C60.4795 66.745 60.7643 66.7579 61.1029 66.5612C61.279 66.4314 61.4157 66.3752 61.6063 66.2036C61.7133 66.1277 61.7316 66.0662 61.7741 65.9144C61.831 65.7784 61.5714 65.8324 61.5547 65.7094C61.5372 65.5393 61.5653 65.4725 61.4711 65.3874C61.421 65.3533 61.2145 65.335 61.2434 65.2227C61.254 65.1839 61.3413 65.1551 61.3853 65.1551C61.6382 65.1316 61.7931 65.25 62.0034 65.2265C62.1066 65.2181 62.4065 65.2925 62.6647 65.272C63.3716 65.1877 63.6578 64.6388 64.067 64.2455C64.4247 63.9243 64.8316 63.6464 65.2059 63.3017C65.3859 63.1241 65.2318 63.3921 65.379 63.2167C65.3798 63.2192 65.3798 63.2218 65.379 63.2243C65.5869 62.9608 65.8449 62.7411 66.1383 62.5782C66.2325 62.2623 66.3038 61.9169 66.3911 61.5668C66.4405 61.3277 66.3387 61.5987 66.5923 61.415C66.7351 61.2996 66.9317 61.2889 67.0935 61.0946C67.464 60.6998 67.7502 60.8296 68.1967 60.4834C68.2422 60.4145 68.3054 60.3592 68.3796 60.3232C68.5991 60.2062 68.8094 60.1911 69.0812 60.147C69.3211 60.125 69.6476 59.8965 69.7767 59.7226C69.8192 59.6778 69.8435 59.5221 69.9285 59.4288C70.2011 59.141 70.3021 59.0058 70.5959 58.6695C70.6704 58.5219 70.7353 58.3698 70.7903 58.2139C70.8108 58.1084 70.9657 57.9566 71.0477 57.8806C71.0758 57.8465 71.1502 57.7774 71.157 57.709C71.2132 57.539 71.4903 56.8048 71.5503 56.5588C71.6338 56.2254 71.4402 56.1146 71.687 55.8618C71.8502 55.7099 72.0005 55.6514 72.1858 55.4328C72.308 55.2908 72.3589 55.2551 72.4675 55.1169C72.9678 54.4731 73.6185 53.8634 73.8729 52.7739C73.9412 52.4565 73.9344 52.1611 73.7066 52.0981ZM52.8391 25.4709C52.644 25.4443 52.5893 25.2203 52.5977 25.0579C52.6394 25.1186 52.7852 25.2591 52.8718 25.2704C52.9993 25.2856 53.092 25.1907 53.1512 25.1414C53.3387 25.0313 53.6181 25.0472 53.8861 25.0859C54.1542 25.1247 54.2658 25.2234 54.3417 25.1953C54.3842 25.1816 54.4472 25.1642 54.5087 25.1467C54.063 25.2834 53.3 25.5005 52.8391 25.4709ZM54.7069 24.581C55.1344 24.5286 56.0113 24.4436 56.4957 24.4823C56.4464 25.0518 55.2703 24.786 54.7168 24.7207C54.6454 24.7101 54.6264 24.7291 54.489 24.7116C54.51 24.7457 54.5291 24.7809 54.5459 24.8172C54.5216 24.7754 54.4518 24.7215 54.4525 24.6782C54.4525 24.6152 54.6613 24.5871 54.7069 24.581ZM49.4733 21.6199L49.468 21.6146C49.7239 21.5713 49.7505 21.6473 49.9646 21.5782C50.1635 21.5159 50.1012 21.2912 50.2941 21.2972C50.5165 21.3314 50.66 21.6009 50.7178 21.6518C50.7542 21.607 50.7527 21.4757 50.755 21.4506C50.7929 21.4506 50.8658 21.459 50.9068 21.462C50.9941 21.4734 51.7701 22.0504 51.8058 22.0975C51.9052 22.2904 51.7807 22.4096 51.925 22.5531C52.3418 22.9236 52.912 22.9327 53.385 23.1992C53.5478 23.2236 53.7118 23.2393 53.8763 23.2463C54.0934 23.3981 54.3645 23.5651 54.3554 23.7937C54.347 23.8403 54.3223 23.8823 54.2857 23.9122C54.2491 23.9422 54.203 23.958 54.1557 23.9569C53.9279 23.9524 53.7062 23.6904 53.6409 23.6472C53.5505 23.8689 53.3319 24.5841 53.0616 24.5719C52.8695 24.4337 52.8832 24.3282 52.827 24.0731C52.6334 24.0974 52.6751 24.1604 52.4382 24.149C52.5142 23.9379 52.6721 23.8127 52.688 23.6046C52.6971 23.4285 52.0184 23.0891 51.8657 23.0769C51.5514 23.0557 51.8597 23.427 51.1467 23.4156C50.9372 23.3974 50.8977 23.8559 50.8863 24.0587C50.8734 24.1915 50.8605 24.3882 50.8453 24.5499C50.8347 24.7671 50.7003 25.1976 50.4072 25.1839C50.1954 25.1695 49.9813 25.0153 49.9919 24.8384C50.0253 24.4466 50.2455 23.679 50.5993 23.3624C50.4118 23.3518 50.3275 23.4566 50.1232 23.5386C50.1992 23.2349 50.9805 22.8856 51.4018 22.916C51.5157 22.9296 51.9614 23.0413 52.256 22.9919C52.2649 22.9326 52.2692 22.8727 52.2689 22.8127C51.8665 22.7649 51.6676 22.5758 51.206 22.525C50.9972 22.5052 50.9136 22.6457 50.6638 22.6305C50.5621 22.6221 50.3601 22.5159 50.3548 22.4263C50.2584 22.4217 50.102 22.3997 49.9752 22.3959C50.045 22.3048 50.203 22.2509 50.2166 22.0436C49.935 22.0778 49.569 22.3139 49.3549 22.3055C49.225 22.2911 49.1468 22.4764 48.8234 22.4627C48.7087 22.4498 48.6222 22.4384 48.5539 22.2934C48.4341 22.3076 48.3163 22.3346 48.2023 22.3739C48.1264 22.3648 47.9913 22.3587 47.9184 22.3549C48.4104 21.9555 48.9312 21.8409 49.4733 21.6199ZM56.337 14.1268C56.337 14.224 56.5056 14.3136 56.7683 14.3462C56.9839 14.3887 57.3992 14.3774 57.4068 14.2862C57.3939 14.0281 56.3674 13.8383 56.337 14.1268ZM81.8633 36.6548H81.8565L81.8466 36.6897C81.8144 36.8282 81.7634 36.9615 81.6948 37.086C81.5938 37.1794 81.4184 37.2948 81.3151 37.5416C81.1557 38.0361 81.0289 38.5406 80.9355 39.0518C80.8922 39.2628 80.7335 39.4154 80.7077 39.726C80.7077 40.3144 80.8178 40.8064 80.7647 41.4723C80.7389 41.8474 80.5551 42.5413 80.385 42.7076C80.4071 42.9187 80.5027 43.2102 80.4944 43.4213C80.4792 43.5473 80.4944 43.6688 80.4777 43.8966H80.4564C80.4929 44.0006 80.4898 44.012 80.521 44.1024C80.6001 44.3771 80.6949 44.6471 80.8049 44.911C80.9097 45.1911 80.8953 45.532 80.9492 45.9291C80.9704 46.1569 81.0456 46.2328 81.1238 46.3505C81.1815 46.4416 81.1405 46.5282 81.1997 46.7241C81.7 44.4912 81.9652 42.2122 81.9909 39.9242C82.002 38.8344 81.9595 37.7446 81.8633 36.6548Z" fill="url(#paint0_linear_296_1089)"/>
<path d="M64.5644 11.622C66.2161 12.4782 67.791 13.475 69.2718 14.6013C69.2162 14.7048 69.1421 14.7971 69.0531 14.8739C68.9232 14.9862 68.7805 15.0828 68.6279 15.1616C67.6682 14.3619 66.6644 13.6167 65.6213 12.9294C64.6066 12.2597 63.5555 11.647 62.4726 11.0943C62.5425 11.0555 62.6097 11.0121 62.6738 10.9644C62.729 10.9233 62.7798 10.8768 62.8257 10.8255L62.6131 10.7359C62.5814 10.7666 62.5474 10.7948 62.5113 10.8202C62.4241 10.8787 62.3319 10.9296 62.2357 10.972C61.2188 10.4624 60.1759 10.0063 59.1114 9.60537H59.1045C58.8411 9.50591 58.5731 9.411 58.3111 9.31837C57.4638 9.10679 56.6033 8.92963 55.7296 8.78689C57.875 9.33967 59.9577 10.1119 61.9449 11.0912C61.7475 11.1581 61.5471 11.215 61.3436 11.2621C61.0612 11.3281 60.7415 11.3874 60.3892 11.439C59.5491 10.885 58.6789 10.378 57.7827 9.92047C56.967 9.50474 56.1296 9.13318 55.2741 8.80739L55.3401 8.79752H55.3447C55.4259 8.78461 55.5011 8.77095 55.5725 8.75652C54.9823 8.66389 54.3873 8.58797 53.7875 8.52874C53.9203 8.57126 54.0532 8.61378 54.1853 8.65858H54.1792C54.0737 8.66541 53.9651 8.66541 53.855 8.66541C53.7594 8.61125 53.6637 8.55886 53.568 8.50824C53.3661 8.48926 53.1626 8.47332 52.9606 8.45813L53.3744 8.66541L53.1603 8.6601C53.0198 8.6601 52.8733 8.65023 52.7222 8.64187C52.6789 8.56595 52.6349 8.50065 52.5909 8.43384L52.3175 8.41865C52.3631 8.48471 52.4079 8.55152 52.4519 8.62137L52.3001 8.6115C52.215 8.60619 52.1247 8.5986 52.029 8.591L51.758 8.56747L51.6107 8.55304L51.7625 8.39511C51.6653 8.39511 51.5674 8.38904 51.4702 8.386C51.4284 8.43308 51.3859 8.48091 51.3434 8.53102C51.1951 8.51432 51.0501 8.49635 50.9083 8.47711L50.6965 8.4475L50.9152 8.37689C50.616 8.37689 50.3159 8.37892 50.0147 8.38297C49.2554 8.39714 48.4995 8.4394 47.7468 8.50976C47.2082 8.6444 46.6745 8.79626 46.1455 8.96532C45.1866 9.26981 44.2455 9.62747 43.3264 10.0366C42.9893 9.92806 42.6833 9.81721 42.4153 9.7056C42.31 9.66257 42.206 9.61626 42.1032 9.56665L41.7798 9.66004C41.9255 9.74052 42.0746 9.81366 42.227 9.87947C42.4608 9.98272 42.7235 10.0845 43.012 10.1832C42.026 10.6362 41.0656 11.1432 40.1352 11.7017C39.1464 12.2955 38.1908 12.9431 37.2728 13.6416C36.7666 13.473 36.2703 13.2794 35.7839 13.0608C35.4915 12.9303 35.2082 12.7804 34.9358 12.612L34.7126 12.7434C35.0008 12.9329 35.3034 13.0997 35.6176 13.2422C36.0835 13.4578 36.5599 13.6499 37.045 13.8177C36.1992 14.4722 35.3734 15.1763 34.5676 15.93C33.742 16.7029 32.9422 17.5265 32.1683 18.4006C31.8848 18.721 31.6092 19.0435 31.3415 19.3679C31.0955 19.6656 30.8571 19.9632 30.6263 20.2608L30.8252 20.6564C31.1375 20.7612 31.4665 20.8667 31.8122 20.973C32.2344 21.1011 32.6712 21.2276 33.1227 21.3526C33.639 21.4928 34.1824 21.6315 34.7528 21.7687C35.2995 21.9003 35.8596 22.0269 36.4331 22.1483C35.6032 23.6828 34.853 25.2591 34.1857 26.8709C34.1492 26.959 34.1097 27.0478 34.0778 27.1359L34.2153 27.4108C34.2783 27.2544 34.3413 27.0979 34.4058 26.9431C35.0753 25.3245 35.8295 23.7423 36.6654 22.203C37.9888 22.4832 39.3987 22.7444 40.8641 22.9835C42.3318 23.2227 43.8617 23.4391 45.4348 23.6327C45.0507 25.2069 44.6882 26.8421 44.3476 28.5383C44.0059 30.2329 43.6901 31.9883 43.3985 33.7885C41.4335 33.5479 39.5438 33.2776 37.7504 32.9837C37.4801 32.9387 37.2118 32.8936 36.9456 32.8486L37.0746 33.1052L37.6957 33.2085C39.5088 33.5053 41.4092 33.7779 43.3613 34.0171C43.2307 34.8305 43.1064 35.6444 42.9885 36.4589C42.8696 37.289 42.7552 38.1302 42.6453 38.9826C42.5208 39.9575 42.4059 40.9289 42.3006 41.8967C42.25 42.3426 42.2037 42.7875 42.1617 43.2314L42.3591 43.624C42.4132 43.0672 42.4709 42.5031 42.5322 41.9316C42.636 40.9663 42.7509 39.9947 42.8769 39.0168C42.9852 38.1705 43.0999 37.328 43.2208 36.4892C43.3398 35.6591 43.4638 34.8459 43.5929 34.0497C44.6073 34.1732 45.6411 34.2881 46.6945 34.3944C47.7478 34.5007 48.8156 34.5977 49.8978 34.6852C50.9754 34.7733 52.0455 34.8507 53.1079 34.9176C54.1572 34.9829 55.1949 35.0375 56.2209 35.0816C56.2178 35.8914 56.208 36.7122 56.1913 37.5438C56.1725 38.3876 56.1472 39.2395 56.1153 40.0995C56.0794 41.086 56.0344 42.0637 55.9802 43.0325C55.927 43.9943 55.865 44.9456 55.7942 45.8866C54.6958 45.84 53.5822 45.7818 52.4534 45.7119C51.3247 45.6421 50.1784 45.5593 49.0148 45.4637C47.8531 45.369 46.7096 45.264 45.5844 45.1486C44.7087 45.059 43.8427 44.9638 42.9862 44.8631L43.1092 45.1076C43.9141 45.2012 44.729 45.2898 45.554 45.3733C46.6914 45.4892 47.8374 45.5945 48.992 45.6892C50.1466 45.7838 51.2933 45.8666 52.4322 45.9374C53.5569 46.0083 54.6705 46.067 55.7729 46.1136C55.637 47.8963 55.4692 49.6305 55.2809 51.3008C55.0865 52.9978 54.8664 54.6294 54.6226 56.1776C53.5779 56.1346 52.5149 56.0791 51.4338 56.0113C50.467 55.9521 49.4827 55.882 48.481 55.801L48.6017 56.0409C49.5457 56.1153 50.4852 56.1824 51.4201 56.2421C52.4876 56.3084 53.544 56.3633 54.5892 56.4069C54.3425 57.9542 54.0707 59.4234 53.7799 60.7901C53.4936 62.134 53.1876 63.386 52.8688 64.5279L53.029 64.846L53.0335 64.8309C54.6993 64.8977 56.309 64.9296 57.8404 64.9273C59.3718 64.925 60.8091 64.8893 62.1583 64.8217C61.5456 65.7532 60.8601 66.6347 60.1083 67.4579C59.3981 68.2357 58.6142 68.9429 57.7675 69.5694C57.0318 69.6111 56.2543 69.6392 55.4434 69.6529L55.5634 69.8906C56.1966 69.8792 56.8085 69.8594 57.3947 69.8306C57.0235 70.0853 56.6393 70.3205 56.2437 70.5352C56.4768 70.4934 56.7098 70.4486 56.9414 70.4015C57.2451 70.2178 57.539 70.0222 57.8229 69.8146C58.5609 69.7721 59.2572 69.7182 59.9056 69.6468C60.307 69.5233 60.7051 69.3915 61.0999 69.2513C60.8336 69.2912 60.5552 69.3284 60.2647 69.3629C59.6186 69.4388 58.9193 69.5026 58.1745 69.5504C58.959 68.9417 59.6882 68.2648 60.3535 67.5277C61.1191 66.6798 61.8157 65.7721 62.4369 64.8134C63.588 64.7504 64.6692 64.6615 65.6668 64.556C66.5992 64.4543 67.4587 64.3282 68.2346 64.1916C67.3695 65.1577 66.4285 66.0531 65.4208 66.8695C64.7558 67.4084 64.0604 67.9088 63.3382 68.3682C63.7816 68.1713 64.2197 67.9648 64.6525 67.7487C65.0285 67.4753 65.396 67.1906 65.7549 66.8945C66.7777 66.0486 67.7306 65.1216 68.6044 64.1225C69.2431 64.0011 69.8747 63.8452 70.4965 63.6555C70.7068 63.591 70.9148 63.5181 71.1198 63.4391C71.3142 63.2711 71.506 63.1015 71.6953 62.9304C71.4051 63.0755 71.1052 63.2006 70.7979 63.3047C70.1651 63.5159 69.5194 63.6863 68.8648 63.815C68.9868 63.6707 69.1075 63.5257 69.227 63.3799C69.3864 63.1896 69.5441 62.9932 69.7 62.7907C70.533 61.7049 71.2852 60.5594 71.9505 59.3634C72.6279 58.1438 73.2206 56.8789 73.7241 55.5778C74.5938 55.4195 75.4533 55.2093 76.298 54.9483C76.8685 54.7754 77.4212 54.5484 77.9486 54.2703C77.7968 54.5938 77.6424 54.9134 77.4855 55.2293C77.2972 55.6023 77.1005 55.9721 76.8955 56.3385C76.2501 57.4941 75.528 58.6051 74.7339 59.6641C74.4722 60.0134 74.2024 60.356 73.9245 60.6921C74.929 59.5807 75.8526 58.3988 76.6882 57.1555C76.8264 56.9232 76.9631 56.6886 77.096 56.4509C77.3166 56.0546 77.5267 55.6577 77.7261 55.2604C77.9256 54.863 78.1149 54.4637 78.2941 54.0623C78.3897 53.9993 78.4778 53.9347 78.5591 53.8702C78.5256 53.9385 78.4907 54.0091 78.4543 54.082C78.3692 54.2529 78.2819 54.4176 78.206 54.5695C77.7849 55.3743 77.3316 56.1573 76.8462 56.9186C80.3399 51.6243 82.1355 45.3902 81.9932 39.0487C81.7388 26.9757 74.6853 16.6392 64.5644 11.622ZM78.903 26.4222C79.672 28.0427 80.298 29.7274 80.7738 31.4569C80.7373 31.6799 80.6395 31.8883 80.4914 32.0589C80.3092 32.2708 80.095 32.453 79.8566 32.5988C79.3842 30.8473 78.7702 29.1371 78.0207 27.4852C77.2629 25.8141 76.3724 24.2065 75.358 22.6775C75.5667 22.5569 75.7597 22.411 75.9328 22.2432C76.0542 22.1242 76.1543 21.9853 76.2289 21.8325C77.2476 23.2846 78.1421 24.8199 78.903 26.4222ZM75.9586 39.669C75.8273 37.8671 75.5736 36.0762 75.1993 34.3086C76.1003 34.1522 76.9914 33.9435 77.8681 33.6838C78.5056 33.5004 79.1223 33.2515 79.7086 32.9412C80.6098 36.4044 80.9363 39.992 80.6751 43.561C80.1869 43.8548 79.5453 44.1259 78.7648 44.3718C77.8523 44.6505 76.9238 44.8736 75.9844 45.04C76.0985 43.2509 76.0898 41.4561 75.9586 39.6682V39.669ZM68.0744 40.1306C68.0091 38.4284 67.8679 36.7443 67.6568 35.0922C68.3503 35.0573 69.023 35.016 69.675 34.9684C70.3446 34.9178 70.9981 34.8609 71.6354 34.7976C72.2554 34.7348 72.8454 34.6652 73.4052 34.5888C73.9498 34.5144 74.4671 34.4352 74.9571 34.3511C75.3336 36.1177 75.5893 37.9079 75.7225 39.7092C75.8553 41.4989 75.8637 43.2955 75.7475 45.0863C74.6845 45.2769 73.4902 45.4401 72.1949 45.5745C70.8996 45.7089 69.4965 45.8144 68.0008 45.8904L68.0198 45.5996L68.0403 45.2366C68.1291 43.5207 68.139 41.8162 68.0744 40.1299V40.1306ZM65.2113 24.5142C65.802 24.4876 66.376 24.4519 66.9302 24.4117C67.5035 24.3699 68.0638 24.3213 68.6082 24.2667C69.0815 24.2161 69.5335 24.1632 69.9642 24.108C70.3823 24.0518 70.7812 23.9923 71.1608 23.9296C72.0158 25.531 72.7584 27.1899 73.3832 28.8944C74.0103 30.604 74.5205 32.3543 74.91 34.1332C73.904 34.3064 72.7955 34.4537 71.5754 34.5767C70.3553 34.6997 69.0341 34.7961 67.6272 34.8644C67.3873 33.0422 67.0623 31.2648 66.6592 29.5412H66.663C66.2663 27.8416 65.7818 26.1636 65.2113 24.5142ZM49.4946 11.505C49.2056 12.0922 48.9148 12.7386 48.6222 13.4442C48.3246 14.163 48.0287 14.9377 47.7346 15.7683C46.6512 15.6362 45.5996 15.4889 44.5928 15.3272C43.6103 15.17 42.6666 14.9984 41.7729 14.8147C42.4365 14.0675 43.1158 13.3728 43.8108 12.7305C44.4949 12.0951 45.216 11.5005 45.9701 10.95C46.5122 11.0586 47.0885 11.1611 47.6929 11.2537C48.2752 11.3464 48.8781 11.4306 49.4984 11.505H49.4946ZM54.3789 13.9597C54.5535 14.7091 54.7175 15.5117 54.8694 16.362C54.3182 16.3367 53.7594 16.3063 53.193 16.2709C52.6129 16.2345 52.0194 16.1912 51.4125 16.1411C50.8056 16.091 50.2129 16.0371 49.6343 15.9794V15.9847C49.0745 15.928 48.5177 15.8667 47.9639 15.8009C48.254 14.9832 48.547 14.2171 48.8401 13.5087C49.1332 12.8003 49.4316 12.136 49.73 11.5347C50.0489 11.5726 50.3791 11.6106 50.717 11.6417C51.0708 11.6766 51.4193 11.71 51.7716 11.7374C52.1239 11.7647 52.4762 11.7905 52.8255 11.8133C53.1585 11.8351 53.4898 11.8535 53.8193 11.8687C54.0213 12.508 54.2111 13.2111 54.3827 13.9597H54.3789ZM54.0593 11.8809C54.6872 11.9082 55.2961 11.9242 55.8815 11.9287C56.4889 11.9333 57.0773 11.9287 57.6278 11.9074C58.281 12.5736 58.895 13.2771 59.4667 14.0144C60.0633 14.7825 60.6208 15.5803 61.1371 16.4045C60.226 16.4402 59.2648 16.4554 58.2701 16.4509C57.2489 16.4463 56.1882 16.4205 55.0995 16.3749C54.9446 15.5063 54.779 14.6944 54.6029 13.9392C54.4333 13.1982 54.2521 12.5121 54.0593 11.8809ZM47.8888 16.0204C48.4456 16.0867 49.0173 16.1489 49.6039 16.2071C50.1997 16.2669 50.797 16.3213 51.3958 16.3704C51.9946 16.4195 52.5929 16.4633 53.1907 16.5017C53.7708 16.5389 54.3463 16.5708 54.9134 16.5959C55.1101 17.7264 55.2878 18.9412 55.4449 20.2282C55.6021 21.5151 55.7334 22.8544 55.8435 24.2659C55.0296 24.23 54.201 24.1857 53.3577 24.133C52.5144 24.0804 51.6539 24.0181 50.7762 23.9463C49.8985 23.8744 49.0398 23.7957 48.2001 23.7101C47.3664 23.6266 46.5411 23.5355 45.7241 23.4368C46.0627 22.061 46.4143 20.7498 46.7757 19.5137C47.1371 18.2776 47.5099 17.1023 47.8888 16.0204ZM55.7038 20.4681C55.558 19.2427 55.3918 18.0696 55.205 16.9588C55.1845 16.8335 55.1648 16.7249 55.1458 16.6156V16.6057C56.2437 16.6505 57.3043 16.6764 58.318 16.6817C59.3627 16.687 60.3558 16.671 61.2882 16.6338C62.0121 17.8103 62.6684 19.0271 63.2539 20.2783C63.8698 21.5913 64.4194 22.9343 64.9007 24.3024C63.5751 24.3593 62.1613 24.3866 60.6777 24.3828C59.2093 24.379 57.6703 24.3441 56.0759 24.2765C55.9718 22.9607 55.8481 21.6882 55.7038 20.4689V20.4681ZM63.4741 20.2229C62.8981 18.99 62.2545 17.7898 61.5463 16.6278C62.3208 16.5936 63.0542 16.5442 63.7391 16.4805V16.4744C64.4414 16.4091 65.0921 16.3286 65.682 16.2345C66.7285 17.3507 67.6999 18.5349 68.59 19.7794C69.4922 21.0404 70.3148 22.3565 71.053 23.72C70.2353 23.8544 69.3318 23.969 68.3561 24.0632C67.3585 24.1589 66.2811 24.234 65.1369 24.2872C64.651 22.9054 64.096 21.549 63.4741 20.2229ZM73.5912 23.3912C74.1292 23.2419 74.651 23.0397 75.1492 22.7876C76.1626 24.3136 77.0513 25.9188 77.8066 27.5877C78.5594 29.2466 79.1747 30.9645 79.6463 32.7241C79.065 33.0376 78.4515 33.2873 77.8165 33.4689C76.9412 33.7275 76.0516 33.9352 75.1522 34.0907C74.7644 32.3063 74.2547 30.5506 73.6269 28.8359C73.005 27.1375 72.2662 25.4842 71.4159 23.8878C72.1516 23.7625 72.8798 23.597 73.5973 23.392L73.5912 23.3912ZM69.2194 15.0394C69.3151 14.9542 69.3968 14.8546 69.4616 14.744C70.2988 15.3899 71.1064 16.0788 71.8844 16.8107C72.6705 17.5513 73.4227 18.3341 74.1409 19.1591C74.4856 19.5555 74.8187 19.9576 75.1401 20.3656C75.4615 20.7736 75.77 21.1846 76.0656 21.5986C76.0135 21.7702 75.9205 21.9265 75.7946 22.0542C75.6288 22.2243 75.4399 22.3702 75.2335 22.4877C74.9718 22.0975 74.7023 21.7128 74.4249 21.3337C74.1379 20.9414 73.8392 20.5509 73.529 20.1621C72.8107 19.2626 72.054 18.4054 71.2588 17.5905C70.4808 16.7907 69.6689 16.034 68.8231 15.3203C68.9659 15.2422 69.0998 15.1488 69.2224 15.0417L69.2194 15.0394ZM71.0803 17.737C71.8797 18.5554 72.6373 19.4135 73.3505 20.3079C73.6542 20.687 73.9498 21.074 74.2373 21.4688C74.5112 21.8439 74.7762 22.2217 75.0323 22.6024C74.5462 22.8446 74.0376 23.0389 73.5138 23.1824C72.7858 23.3883 72.0469 23.5536 71.3005 23.6775C71.1046 23.3146 70.9022 22.9549 70.6931 22.5986C70.4805 22.2326 70.2596 21.8672 70.0303 21.5022C69.4163 20.5167 68.7646 19.5752 68.0752 18.6778C67.4055 17.8051 66.7055 16.976 65.9751 16.1904C66.4794 16.1052 66.9791 15.9947 67.4723 15.8594C67.8636 15.7553 68.2448 15.6163 68.6112 15.4441C69.4672 16.1633 70.2912 16.9284 71.0834 17.7393L71.0803 17.737ZM61.5 11.4587C61.7444 11.3983 61.9842 11.3204 62.2175 11.2256C63.3288 11.7858 64.4075 12.4086 65.4482 13.0911C66.4746 13.7651 67.4631 14.4951 68.4093 15.2778C68.0624 15.4289 67.7042 15.5525 67.338 15.6476C66.8226 15.7842 66.3005 15.8944 65.7739 15.9778C64.9826 15.1397 64.1462 14.3453 63.2683 13.5983C62.441 12.8953 61.5756 12.2384 60.6762 11.6303C60.9807 11.5794 61.2563 11.5225 61.5 11.4587ZM63.0185 13.7099C63.8792 14.4375 64.7004 15.2105 65.4785 16.0257C65.2761 16.056 65.066 16.0854 64.8483 16.1137C64.5894 16.1464 64.3169 16.1775 64.0412 16.2056C63.6282 16.2476 63.198 16.2843 62.7505 16.3157C62.3111 16.3456 61.8599 16.3709 61.3968 16.3916C60.8699 15.545 60.301 14.7252 59.6922 13.9354C59.1432 13.2233 58.5559 12.5415 57.933 11.893C58.3643 11.8756 58.7758 11.8497 59.1554 11.8171C59.573 11.7814 59.9633 11.7412 60.3224 11.6857C61.2613 12.308 62.1635 12.9839 63.0246 13.7099H63.0185ZM54.4116 8.88939C54.5368 8.88408 54.6553 8.87648 54.7677 8.86813C55.7011 9.20754 56.6138 9.60152 57.501 10.048C58.3651 10.4831 59.2051 10.9647 60.0172 11.4906C59.7044 11.5293 59.368 11.5665 59.0119 11.5916C58.5989 11.6242 58.1623 11.6493 57.7067 11.6675C57.1451 11.1006 56.5498 10.5682 55.924 10.0731C55.386 9.647 54.822 9.25472 54.2354 8.8985C54.2943 8.89902 54.3531 8.89598 54.4116 8.88939ZM53.2939 8.89698C53.464 8.89698 53.6326 8.90154 53.7973 8.89698C54.4525 9.27278 55.0804 9.69419 55.6765 10.1581C56.2802 10.628 56.8557 11.133 57.4 11.6706C56.889 11.685 56.3537 11.6911 55.7987 11.6873C55.2179 11.6827 54.6128 11.6675 53.9902 11.6402C53.8105 11.0662 53.6227 10.5423 53.4268 10.0685C53.2603 9.66307 53.0709 9.26737 52.8596 8.88332C53.0047 8.88863 53.1482 8.89395 53.2939 8.89698ZM51.4338 8.77398L51.7056 8.80739L52.0093 8.83473C52.1065 8.84308 52.209 8.85067 52.313 8.8575C52.4033 8.86358 52.496 8.86965 52.5901 8.87421C52.8194 9.27436 53.0223 9.68903 53.1975 10.1156C53.3888 10.5742 53.5726 11.0804 53.7487 11.6341C53.445 11.6199 53.1342 11.6027 52.8164 11.5825C52.4815 11.5612 52.1391 11.5362 51.7921 11.5066C51.4451 11.4769 51.0982 11.4466 50.7694 11.4139C50.4611 11.3825 50.1519 11.3489 49.8416 11.3129C50.105 10.7951 50.3731 10.3259 50.6335 9.90072C50.8759 9.50845 51.1432 9.1321 51.4338 8.77398ZM50.244 8.6153C50.408 8.64111 50.5758 8.66769 50.7443 8.69123V8.6973C50.884 8.7178 51.0275 8.73678 51.1733 8.75424C50.902 9.10016 50.6507 9.4614 50.4209 9.83619C50.1521 10.2705 49.8803 10.7572 49.6093 11.294C48.9882 11.218 48.3891 11.1353 47.8174 11.0457C47.273 10.9599 46.7453 10.8673 46.2412 10.7686C46.8644 10.3254 47.5134 9.91973 48.1849 9.55374C48.8484 9.19308 49.5365 8.8795 50.244 8.6153ZM46.4014 9.13615C47.3503 8.83941 48.316 8.59932 49.2934 8.41713C49.4065 8.44219 49.5174 8.46876 49.6343 8.49306C49.692 8.50521 49.7512 8.51811 49.8105 8.5295C49.1728 8.78566 48.5518 9.08134 47.951 9.4148C47.2539 9.8018 46.5807 10.2305 45.9352 10.6987C45.4872 10.6076 45.0605 10.5119 44.6589 10.4125C44.3119 10.3267 43.9869 10.2378 43.6832 10.1482C44.5708 9.76327 45.4782 9.42544 46.4014 9.13615ZM40.3615 11.852C41.3262 11.2752 42.3235 10.7548 43.3484 10.2933C43.6939 10.4026 44.0712 10.5097 44.4759 10.6122C44.8495 10.7073 45.2481 10.7992 45.6717 10.8878C44.9516 11.4254 44.2614 12.0021 43.6043 12.6151C42.8926 13.2782 42.1984 13.9939 41.5216 14.7623C41.0721 14.6676 40.631 14.5687 40.1982 14.4654C39.7655 14.3629 39.3471 14.2566 38.9462 14.148C38.6752 14.0774 38.4147 14.0015 38.1672 13.9256C37.9592 13.8633 37.7557 13.7995 37.5598 13.7357C38.4596 13.0586 39.3948 12.4298 40.3615 11.852ZM36.5439 21.9426C35.4248 21.7049 34.3747 21.4551 33.4044 21.1977C32.4553 20.9449 31.5822 20.6845 30.7994 20.4195C31.7497 19.1939 32.7756 18.029 33.8713 16.9315C34.9522 15.8483 36.1037 14.838 37.3184 13.9073C37.8863 14.0972 38.5142 14.2817 39.1952 14.4601C39.8588 14.6339 40.5741 14.8025 41.3348 14.9635C40.4456 15.9947 39.6142 17.0745 38.8445 18.1979C38.0389 19.3717 37.2675 20.6237 36.5439 21.9426ZM40.937 22.7649C39.4724 22.5272 38.0829 22.2698 36.7846 21.9972C37.5021 20.6944 38.2652 19.4568 39.0624 18.2959C39.8437 17.1577 40.6894 16.0652 41.5953 15.0234C42.5064 15.2117 43.4873 15.3902 44.5184 15.5549C45.5206 15.7151 46.5684 15.8586 47.6602 15.9938L47.6549 16.0105C47.6177 16.116 47.579 16.2231 47.5425 16.3324C47.1781 17.3954 46.8228 18.5252 46.4796 19.7126C46.1364 20.9001 45.8092 22.1271 45.4925 23.4095C43.9072 23.2151 42.3796 22.9979 40.937 22.7633V22.7649ZM56.2156 34.8538C55.2007 34.8097 54.1671 34.7551 53.1147 34.6898C52.0624 34.6245 50.9952 34.5473 49.913 34.4582C48.8252 34.3651 47.7594 34.2679 46.7157 34.1666C45.672 34.0654 44.6432 33.9508 43.6293 33.8227C43.9209 32.0217 44.2367 30.2747 44.5754 28.5944C44.9193 26.8793 45.2853 25.2317 45.6672 23.6669C46.4846 23.7651 47.3183 23.8572 48.1682 23.9432C49.0287 24.0308 49.8912 24.11 50.7557 24.1809C51.6203 24.2517 52.4838 24.3143 53.3463 24.3684C54.1906 24.4216 55.0283 24.4661 55.8595 24.502C55.9817 26.1094 56.0743 27.7942 56.1343 29.5397C56.1928 31.2541 56.2209 33.0316 56.2156 34.8538ZM56.0926 24.5081C57.6756 24.5742 59.2192 24.6091 60.7043 24.6121C62.1894 24.6152 63.6259 24.5863 64.9774 24.5241C65.5511 26.1797 66.0377 27.8643 66.4352 29.5709C66.8376 31.2891 67.1618 33.0634 67.401 34.8743C65.7572 34.9502 63.9995 34.9882 62.153 34.9859C60.3307 34.9859 58.425 34.9426 56.4471 34.8599C56.4532 33.0414 56.4259 31.2587 56.3659 29.5283C56.3059 27.7965 56.2133 26.1185 56.0926 24.5081ZM56.2118 43.0431H56.208C56.2621 42.0723 56.3072 41.0934 56.3431 40.1063C56.374 39.2534 56.3993 38.4051 56.419 37.5613C56.4358 36.7322 56.4459 35.9086 56.4494 35.0907C58.4151 35.1719 60.3308 35.2144 62.1704 35.2159C64.0101 35.2175 65.7701 35.1795 67.4336 35.1013C67.6447 36.7504 67.7859 38.4314 67.8505 40.1322C67.915 41.8124 67.9059 43.5124 67.8163 45.2192C67.8102 45.3384 67.8034 45.4622 67.7958 45.5859L67.776 45.8972C66.0153 45.9815 64.1316 46.0255 62.1461 46.0248C60.1964 46.0248 58.1486 45.9822 56.0265 45.8949C56.0964 44.955 56.1581 44.0044 56.2118 43.0431ZM55.5178 51.3305C55.7084 49.654 55.8739 47.9024 56.0083 46.1288C58.1183 46.2153 60.1721 46.2586 62.1439 46.2586C64.1043 46.2586 65.9842 46.2153 67.7624 46.1288C67.643 47.8629 67.436 49.5899 67.1421 51.3031C66.8597 52.9474 66.4861 54.5748 66.0229 56.1776C64.3525 56.2619 62.5561 56.3066 60.6709 56.3089C58.8213 56.3089 56.8799 56.2725 54.8686 56.192C55.1093 54.634 55.3272 53.0069 55.5178 51.3305ZM62.32 64.5674C60.9306 64.6433 59.4409 64.682 57.8753 64.6874C56.3484 64.6927 54.7464 64.6646 53.092 64.6008C53.262 64.001 53.4286 63.3683 53.5916 62.7027C53.7586 62.0168 53.9203 61.3 54.0767 60.5524C54.2126 59.901 54.344 59.2275 54.47 58.5373C54.5961 57.8472 54.7145 57.1434 54.8299 56.4205C56.829 56.501 58.7781 56.5413 60.6489 56.5397C62.5015 56.5397 64.2766 56.4957 65.9493 56.4122C65.5431 57.7873 65.0563 59.1373 64.4915 60.4552C63.959 61.6953 63.34 62.8964 62.6389 64.0496C62.5812 64.1445 62.5243 64.2356 62.4688 64.3237C62.4134 64.4117 62.3694 64.4854 62.32 64.5674ZM71.7227 59.2822C71.067 60.4577 70.3265 61.5839 69.5072 62.6518C69.3432 62.8644 69.1746 63.077 69.003 63.2873C68.8314 63.4976 68.6644 63.6942 68.4951 63.8886C67.6804 64.045 66.7662 64.1794 65.767 64.291C64.7891 64.4004 63.7284 64.4877 62.5987 64.5522C62.6267 64.5082 62.6556 64.4626 62.686 64.4133C62.7315 64.3434 62.7809 64.2614 62.8378 64.1695C63.545 63.0019 64.1689 61.7859 64.7048 60.5304C65.2806 59.1842 65.7758 57.805 66.1877 56.4C66.7004 56.3737 67.2033 56.3428 67.6963 56.3074C68.1893 56.272 68.6778 56.233 69.1617 56.1905C69.9868 56.1151 70.7635 56.0295 71.4919 55.9339C72.1894 55.8412 72.8418 55.74 73.4492 55.6301C72.9561 56.8848 72.3793 58.1049 71.7227 59.2822ZM73.5449 55.3804C72.5419 55.5649 71.4106 55.7251 70.195 55.8549C68.9795 55.9847 67.6606 56.0865 66.2553 56.1624C66.713 54.5679 67.0828 52.9495 67.363 51.3145C67.6577 49.5933 67.8648 47.8581 67.9833 46.1159C68.7016 46.0787 69.3948 46.0354 70.0682 45.9853C70.7417 45.9352 71.4099 45.8759 72.056 45.8099C72.7515 45.74 73.409 45.658 74.0301 45.5768C74.6294 45.4948 75.1968 45.4062 75.7323 45.3111L75.7278 45.3801C75.7202 45.4925 75.7126 45.6041 75.7027 45.7248C75.5657 47.408 75.312 49.0796 74.9435 50.7276C74.5929 52.3107 74.1262 53.8658 73.5472 55.3804H73.5449ZM78.1005 53.9188C77.6593 54.2012 77.0694 54.4616 76.3466 54.6978C75.516 54.9612 74.6698 55.1724 73.8129 55.3302C74.3772 53.8359 74.834 52.3031 75.1796 50.7436C75.545 49.0962 75.7966 47.4257 75.9328 45.7438C75.9449 45.592 75.9555 45.4295 75.9662 45.2685C76.915 45.1004 77.8531 44.8763 78.7754 44.5974C79.4276 44.4045 80.0581 44.1447 80.6569 43.8221V43.8464C80.5154 45.5982 80.2282 47.335 79.7982 49.039C79.3741 50.7112 78.8068 52.3438 78.1027 53.9188H78.1005ZM80.7533 48.0398C80.2881 49.7694 79.6786 51.4568 78.9311 53.0844C78.8658 53.2163 78.7816 53.338 78.6813 53.4458H78.6881C78.6221 53.5177 78.5516 53.5854 78.477 53.6485C79.123 52.1469 79.6471 50.5958 80.0442 49.0102C80.4662 47.321 80.7488 45.6001 80.8892 43.8647L80.8983 43.7402V43.6809C81.0993 43.5558 81.2871 43.4106 81.4587 43.2474C81.5452 43.1646 81.625 43.075 81.6971 42.9794C81.5173 44.6884 81.2025 46.3805 80.7556 48.0398H80.7533ZM81.7722 42.2186C81.7488 42.4539 81.6575 42.6773 81.5095 42.8617C81.3425 43.0726 81.1434 43.256 80.9196 43.4053C81.1602 39.8463 80.8217 36.2718 79.9174 32.8212C80.16 32.6763 80.3831 32.5007 80.581 32.2989C80.7025 32.1728 80.8048 32.0295 80.8847 31.8737C81.3142 33.5241 81.606 35.2073 81.757 36.9061C81.9123 38.6733 81.9174 40.4505 81.7722 42.2186Z" fill="url(#paint1_linear_296_1089)"/>
<path fill-rule="evenodd" clip-rule="evenodd" d="M11.3722 64.6456L28.5018 54.6689H23.162L10.8984 60.4606L11.3722 64.6456Z" fill="white"/>
<path fill-rule="evenodd" clip-rule="evenodd" d="M28.5018 54.6689V56.8488L11.3722 66.8247V64.2007L28.5018 54.6689Z" fill="#FDFDFD"/>
<path fill-rule="evenodd" clip-rule="evenodd" d="M0.00228882 66.8247H11.3722L29.0683 35.9729L28.511 17.5427L0.00228882 66.8247Z" fill="#FDFDFD"/>
<path fill-rule="evenodd" clip-rule="evenodd" d="M26.8368 39.8634L28.9521 18.4234L47.6914 55.8321L36.3086 55.8594L26.8368 39.8634Z" fill="white"/>
<path fill-rule="evenodd" clip-rule="evenodd" d="M28.511 17.5427V21.5174L41.2946 43.0621L28.511 17.5427Z" fill="#F9F9F9"/>
<path fill-rule="evenodd" clip-rule="evenodd" d="M28.5314 17.5427V21.5174L14.3052 42.1837L28.5314 17.5427Z" fill="#F9F9F9"/>
<path fill-rule="evenodd" clip-rule="evenodd" d="M23.3799 52.0912H26.6272V46.4659L23.3799 52.0912Z" fill="white"/>
<path fill-rule="evenodd" clip-rule="evenodd" d="M26.6272 46.4659V52.0912H29.8746L26.6272 46.4659Z" fill="#F9F9F9"/>
<path fill-rule="evenodd" clip-rule="evenodd" d="M38.3168 60.2996L36.9228 63.0466L36.6836 62.9092C36.6899 62.8637 36.6927 62.8177 36.692 62.7718C36.692 62.5759 36.5287 62.3716 36.1954 62.1492C35.1757 61.437 33.9867 61.0862 32.6163 61.0862C32.0744 61.0794 31.5346 61.1542 31.015 61.3079C30.34 61.5418 29.8845 62.03 29.8845 62.5675C29.8845 63.0056 30.1502 63.3032 30.6817 63.4672C30.9565 63.5432 31.5472 63.6282 32.4439 63.7246L33.7878 63.8613C34.4418 63.9207 35.0892 64.0381 35.7224 64.2121C36.1936 64.3488 36.6396 64.5611 37.0428 64.8407C37.8202 65.3958 38.2993 66.3714 38.2993 67.4055C38.3061 68.2072 38.0251 68.9847 37.5074 69.5967C37.0283 70.1783 36.2835 70.605 35.2722 70.8875C34.4833 71.1043 33.6682 71.2106 32.8501 71.2033C31.3022 71.2033 29.7761 70.8323 28.2718 70.0903C27.9529 69.9468 27.7578 69.8678 27.6963 69.8678C27.6203 69.8678 27.5095 69.9293 27.3455 70.0576L27.0942 69.9278L28.3621 67.0585L28.6104 67.1785V67.2893C28.6104 67.5467 28.7304 67.7859 28.9787 68.0023C29.3469 68.3356 29.9194 68.6188 30.6999 68.8587C31.4141 69.088 32.1586 69.209 32.9086 69.2179C33.6678 69.2179 34.3109 69.0896 34.8515 68.8322C35.4415 68.549 35.8272 68.0342 35.8272 67.5232C35.8272 67.1375 35.6199 66.8543 35.2023 66.688C34.91 66.5772 34.32 66.4663 33.437 66.3729L32.1167 66.2401C31.2344 66.1469 30.609 66.0611 30.2405 65.9827C29.8609 65.8914 29.4932 65.7561 29.1449 65.5795C28.6298 65.3271 28.2032 64.9248 27.921 64.4254C27.6496 63.9384 27.5116 63.3884 27.5209 62.831C27.5209 61.8439 27.8625 61.0255 28.5375 60.3824C29.4289 59.535 30.7649 59.1104 32.5457 59.1083C33.2477 59.1018 33.948 59.1783 34.6321 59.3361C35.2752 59.4796 36.0815 59.7628 37.0481 60.166C37.3814 60.2943 37.5795 60.3619 37.6555 60.3619C37.7754 60.3619 37.9098 60.2943 38.0731 60.166L38.313 60.2943L38.3168 60.2996ZM42.8632 65.8718V69.0744H50.3799C50.7216 69.0744 50.8856 68.9369 50.9964 68.5247H51.2713V71.5488H50.9964C50.8856 71.1365 50.7216 70.9998 50.3799 70.9998H39.7632V70.725C40.1747 70.6134 40.3121 70.4501 40.3121 70.0994V60.2093C40.3121 59.8585 40.1747 59.6983 39.7632 59.5867V59.3126H50.1734C50.515 59.3126 50.6783 59.166 50.7899 58.7545H51.064V61.7809H50.7899C50.6783 61.3778 50.515 61.2403 50.1734 61.2403H42.8632V64.0131H47.6056C47.9472 64.0131 48.1112 63.8765 48.2221 63.4672H48.4969V66.4208H48.2221C48.1112 66.0176 47.9472 65.8718 47.6056 65.8718H42.8632ZM55.8769 66.2309V70.1085C55.8769 70.4501 56.0227 70.6225 56.4228 70.725V70.9998H52.7784V70.725C53.1899 70.6134 53.3273 70.4501 53.3273 70.1085V60.2093C53.3273 59.8585 53.1899 59.6983 52.7784 59.5867V59.3126H60.0885C60.9792 59.3126 61.683 59.3619 62.2038 59.4644C62.6904 59.552 63.1549 59.7349 63.5705 60.0027C64.0176 60.298 64.3688 60.7173 64.5811 61.2092C64.7959 61.7085 64.9043 62.2472 64.8992 62.7907C64.8992 64.7015 63.8406 65.8176 61.7232 66.1391L63.9904 69.3644C64.3935 69.9278 64.6889 70.2983 64.8635 70.4593C65.0568 70.6215 65.2985 70.715 65.5507 70.725V70.9998H61.3201V70.725C61.6124 70.684 61.7582 70.5785 61.7582 70.4213C61.7582 70.3188 61.6207 70.0705 61.355 69.6757L58.9945 66.2309H55.8769ZM55.8769 64.3055H59.8152C60.2269 64.3137 60.6387 64.2962 61.0482 64.2531C61.2791 64.2247 61.5023 64.1523 61.7058 64.0397C62.1439 63.8119 62.3572 63.3792 62.3572 62.7718C62.3572 62.1643 62.1439 61.7376 61.7058 61.5068C61.5028 61.3931 61.2793 61.3206 61.0482 61.2935C60.6388 61.2495 60.2269 61.2317 59.8152 61.2403H55.8769V64.3093V64.3055ZM77.7436 66.9849L79.3715 69.4244L79.149 69.5762C78.9857 69.4305 78.8567 69.3485 78.7549 69.3485C78.6532 69.3485 78.3601 69.4859 77.8901 69.7607C76.9031 70.3241 76.0839 70.7098 75.4096 70.9087C74.7354 71.1077 73.9458 71.198 73.0195 71.198C71.1785 71.198 69.6658 70.7617 68.4814 69.8891C67.7981 69.3913 67.2368 68.7449 66.8399 67.9985C66.3751 67.1204 66.1371 66.1401 66.1474 65.1467C66.1474 63.736 66.5559 62.503 67.3858 61.4567C68.6279 59.8906 70.5086 59.1061 73.0278 59.103C73.9541 59.103 74.7491 59.1964 75.4096 59.3923C76.0702 59.5882 76.8963 59.9655 77.8901 60.5403C78.3601 60.8068 78.6494 60.9412 78.7549 60.9412C78.8605 60.9412 78.9827 60.8653 79.149 60.7187L79.3715 60.8706L77.7482 63.3222L77.5204 63.1704C77.5295 63.0762 77.5378 63.0003 77.5378 62.9388C77.5378 62.6062 77.2896 62.358 76.5622 61.9457C75.5868 61.3833 74.4803 61.0882 73.3543 61.09C72.019 61.09 70.9546 61.4241 70.1609 62.0922C69.2255 62.872 68.7555 63.8977 68.7555 65.1566C68.7555 66.4154 69.2255 67.442 70.1609 68.2217C70.9551 68.8873 72.0196 69.2214 73.3543 69.2239C74.4803 69.2258 75.5868 68.9306 76.5622 68.3683C77.2896 67.956 77.5378 67.7077 77.5378 67.3744C77.5378 67.3129 77.5295 67.237 77.5204 67.1519L77.7436 66.9849Z" fill="white"/>
<path fill-rule="evenodd" clip-rule="evenodd" d="M70.2778 65.3874C69.883 61.6071 75.4818 61.0407 75.9092 64.7094C75.9557 65.0779 75.9291 65.452 75.8309 65.8103C75.7327 66.1685 75.5648 66.5039 75.3369 66.7973C75.109 67.0906 74.8255 67.3362 74.5027 67.5199C74.1798 67.7036 73.8239 67.8218 73.4553 67.8679C71.7948 68.0691 70.4274 66.8186 70.2778 65.3874ZM70.9665 67.9355C70.7949 68.3204 70.5739 68.631 70.3902 69.0319L70.0105 68.9043L67.7221 72.8608C67.9438 73.1303 68.7373 73.5798 69.0508 73.6201L71.2732 69.7182L71.0295 69.3781L71.6445 68.3151C73.0734 68.6765 74.2039 68.8276 75.5584 67.6606C76.8925 66.5111 77.3131 63.4293 74.9025 61.9867C73.024 60.8622 70.9854 61.8098 70.1297 63.0815C69.3819 64.1931 69.3462 65.8278 70.1297 67.0191C70.4084 67.4435 70.6946 67.5741 70.9665 67.9355Z" fill="white"/>
<path fill-rule="evenodd" clip-rule="evenodd" d="M70.7205 64.6372C71.0879 64.2576 71.4121 63.7406 71.9429 63.367C72.4182 63.0329 72.958 62.8469 73.6011 62.6222C72.1334 62.3056 70.8556 63.4353 70.7205 64.6372Z" fill="white"/>
</g>
<defs>
<linearGradient id="paint0_linear_296_1089" x1="55.5011" y1="81.076" x2="55.5011" y2="1.80326" gradientUnits="userSpaceOnUse">
<stop stop-color="#0068B4"/>
<stop offset="0.05" stop-color="#066CB6"/>
<stop offset="0.11" stop-color="#1776BB"/>
<stop offset="0.19" stop-color="#3487C3"/>
<stop offset="0.27" stop-color="#5C9ECF"/>
<stop offset="0.36" stop-color="#8FBDDE"/>
<stop offset="0.46" stop-color="#CCE1F0"/>
<stop offset="0.53" stop-color="white"/>
</linearGradient>
<linearGradient id="paint1_linear_296_1089" x1="56.3097" y1="70.5344" x2="56.3097" y2="8.37917" gradientUnits="userSpaceOnUse">
<stop stop-color="#0068B4"/>
<stop offset="0.03" stop-color="#1273B9"/>
<stop offset="0.09" stop-color="#418EC7"/>
<stop offset="0.17" stop-color="#8CBBDD"/>
<stop offset="0.28" stop-color="#F2F7FB"/>
<stop offset="0.29" stop-color="white"/>
</linearGradient>
<clipPath id="clip0_296_1089">
<rect width="82" height="82" fill="white"/>
</clipPath>
</defs>
</svg>
